<?xml version="1.0" encoding="UTF-8"?>
<svg width="40px" height="40px" viewBox="0 0 40 40" version="1.1" xmlns="http://www.w3.org/2000/svg" xmlns:xlink="http://www.w3.org/1999/xlink">
    <!-- Generator: Sketch 51.3 (57544) - http://www.bohemiancoding.com/sketch -->
    <title>icon / icon-menu-close</title>
    <desc>Created with Sketch.</desc>
    <defs></defs>
    <g id="icon-/-icon-menu-close" stroke="none" stroke-width="1" fill="none" fill-rule="evenodd">
        <path d="M5.81345095,32.0642477 C5.25273322,32.6319023 5.26261949,33.5691762 5.84143476,34.1551537 C6.4175936,34.7384418 7.33498713,34.748359 7.89295405,34.1834833 L20,21.9266373 L32.1070472,34.1834846 C32.6650129,34.748359 33.5824064,34.7384418 34.1585652,34.1551537 C34.7373805,33.5691762 34.7472668,32.6319023 34.1865487,32.0642474 L22.0864241,19.8144005 L33.8198864,7.93575229 C34.3806041,7.36809773 34.3707178,6.43082378 33.7919026,5.84484632 C33.2157437,5.26155816 32.2983502,5.25164105 31.7403833,5.81651666 L20,17.7021638 L8.25961548,5.81651541 C7.70164982,5.25164105 6.78425628,5.26155816 6.20809744,5.84484632 C5.62928217,6.43082378 5.6193959,7.36809773 6.18011396,7.93575262 L17.9135759,19.8144005 L5.81345095,32.0642477 Z" id="Combined-Shape" fill="#4A4A4A" fill-rule="nonzero"></path>
    </g>
</svg>