<?xml version="1.0" encoding="UTF-8"?>
<svg width="40px" height="40px" viewBox="0 0 40 40" version="1.1" xmlns="http://www.w3.org/2000/svg" xmlns:xlink="http://www.w3.org/1999/xlink">
    <!-- Generator: Sketch 51.3 (57544) - http://www.bohemiancoding.com/sketch -->
    <title>icon / icon-menu</title>
    <desc>Created with Sketch.</desc>
    <defs></defs>
    <g id="icon-/-icon-menu" stroke="none" stroke-width="1" fill="none" fill-rule="evenodd">
        <path d="M5,21.5 C4.17157288,21.5 3.5,20.8284271 3.5,20 C3.5,19.1715729 4.17157288,18.5 5,18.5 L35,18.5 C35.8284271,18.5 36.5,19.1715729 36.5,20 C36.5,20.8284271 35.8284271,21.5 35,21.5 L5,21.5 Z M5,10.75 C4.17157288,10.75 3.5,10.0784271 3.5,9.25 C3.5,8.42157288 4.17157288,7.75 5,7.75 L35,7.75 C35.8284271,7.75 36.5,8.42157288 36.5,9.25 C36.5,10.0784271 35.8284271,10.75 35,10.75 L5,10.75 Z M5,32.75 C4.17157288,32.75 3.5,32.0784271 3.5,31.25 C3.5,30.4215729 4.17157288,29.75 5,29.75 L35,29.75 C35.8284271,29.75 36.5,30.4215729 36.5,31.25 C36.5,32.0784271 35.8284271,32.75 35,32.75 L5,32.75 Z" id="Combined-Shape" fill="#4A4A4A" fill-rule="nonzero"></path>
    </g>
</svg>