<?xml version="1.0" encoding="UTF-8"?>
<svg width="600px" height="600px" viewBox="0 0 600 600" version="1.1" xmlns="http://www.w3.org/2000/svg" xmlns:xlink="http://www.w3.org/1999/xlink">
    <!-- Generator: Sketch 52.3 (67297) - http://www.bohemiancoding.com/sketch -->
    <title>jobs-background</title>
    <desc>Created with Sketch.</desc>
    <g id="jobs-background" stroke="none" stroke-width="1" fill="none" fill-rule="evenodd" opacity="0.6">
        <path d="M438.14263,305.435132 C437.7481,297.514033 433.36487,291.425721 425.821453,288.645077 C417.926904,285.742509 410.186222,286.450453 403.771162,292.625291 C402.291674,294.049044 401.3882,294.218164 400.054688,292.613492 C394.945522,286.466185 383.871061,285.825103 377.041743,288.999048 C369.009109,292.72755 365.852868,299.626064 365.237401,307.794943 C364.779746,313.914719 365.150604,320.097424 365.150604,326.248664 L365.0283,326.248664 C365.0283,332.679149 365.071698,339.113567 365.000683,345.540119 C364.977011,347.317843 365.564861,348.013987 367.383645,347.947126 C370.236098,347.833068 373.104332,347.813403 375.948895,347.951059 C377.921546,348.045451 378.481779,347.306044 378.458107,345.410329 C378.367365,338.429222 378.402872,331.448114 378.426544,324.463074 C378.446271,319.043375 378.331857,313.61581 378.6317,308.211843 C378.89998,303.260173 381.567004,300.573921 386.005469,300.035098 C390.140145,299.535604 393.213535,301.62797 394.598336,306.119477 C394.992866,307.401641 394.988921,308.837192 394.992866,310.20195 C395.020483,321.686363 395.095444,333.170776 394.949468,344.65519 C394.91396,347.368972 395.777981,348.194906 398.385825,347.962858 C400.670155,347.754408 403.001828,347.758341 405.290103,347.958925 C407.921619,348.18704 408.789586,347.298178 408.758023,344.600127 C408.623883,333.300566 408.671227,322.001005 408.734351,310.701443 C408.742242,308.982714 409.014468,307.220722 409.452396,305.553122 C410.328253,302.217923 413.168871,300.133423 416.786712,299.92104 C419.856157,299.736188 422.870367,301.388056 423.998724,304.436145 C424.744386,306.441984 425.071846,308.707403 425.091572,310.858764 C425.19415,322.248785 425.182314,333.642739 425.103408,345.032759 C425.091572,347.121192 425.643914,348.069049 427.892736,347.951059 C430.745189,347.801604 433.609478,347.868466 436.461931,347.935327 C438.134739,347.974657 439.038213,347.518427 438.99876,345.622712 C438.718644,332.226852 438.809386,318.811327 438.14263,305.435132 M191.950477,335.144698 C182.311055,335.144698 174.537328,327.235944 174.474351,317.353924 C174.407437,307.526826 182.437009,299.539612 192.328339,299.598457 C202.046482,299.657302 209.454155,307.29537 209.458091,317.271541 C209.465964,327.424248 201.904784,335.144698 191.950477,335.144698 M177.35555,290.399038 C176.591953,290.814875 175.792932,291.164022 174.403501,291.83093 L174.403501,288.115856 C174.403501,277.488467 174.348397,266.861079 174.442862,256.23369 C174.462542,253.92697 173.891813,252.832455 171.36486,253.020759 C168.896947,253.209062 166.39361,253.197293 163.921762,253.024682 C161.528635,252.85207 160.997266,253.899509 161.005138,256.07677 C161.064179,276.507719 160.879184,296.942591 161.166517,317.373539 C161.225558,321.739831 162.217446,326.368962 163.93357,330.390031 C169.979365,344.599112 185.160766,350.291375 199.428999,347.168672 C216.692578,343.398676 227.20187,323.870016 221.388303,307.326754 C215.0906,289.390829 194.052335,281.30554 177.35555,290.399038 M244,311 C246.038716,303.687491 251.947072,299.845774 260.497917,300.004742 C267.958834,300.141 275.188434,305.447489 276,311 L244,311 Z M248.076616,289.414724 C231.519942,296.574346 224.628489,314.656681 231.852013,330.223789 C241.388314,350.762857 268.625958,353.668042 281.955683,338.081435 C284.287994,335.363431 286.417156,332.493343 287.682933,328.519675 C283.010497,328.519675 278.783427,328.480679 274.552451,328.566469 C274.040671,328.578168 273.47029,329.190402 273.040551,329.634953 C267.110151,335.807982 259.980389,336.782877 252.252899,334.08047 C247.482795,332.411452 244.83404,328.609365 243.306513,323.298142 L246.873347,323.298142 C257.08551,323.298142 267.293767,323.325439 277.509837,323.286443 C283.784028,323.263046 288.335355,319.862615 288.91355,314.173134 C289.194833,311.388836 288.784628,308.261376 287.757161,305.656459 C281.666586,290.257033 263.367514,282.808842 248.076616,289.414724 Z M326.289682,334.999975 C316.296408,335.015853 309.234178,327.426055 309.004447,316.978173 C308.7866,307.240842 316.597434,298.980188 326.776869,299.000036 C336.401782,299.023853 343.879904,306.923277 343.99873,316.994051 C344.113595,327.160094 336.425547,334.980127 326.289682,334.999975 M356.897724,317.86083 C356.84315,314.79974 356.406562,311.691796 355.716596,308.708794 C351.674255,291.326173 331.39628,282.939409 315.846714,288.917125 C302.81143,293.926538 295.38163,305.772646 296.04041,319.711541 C296.843421,336.734953 312.100629,349.674308 329.006738,347.823597 C334.031403,347.27307 338.755914,346.023645 342.907403,343.231961 C343.22315,343.520891 343.38687,343.622407 343.472629,343.766871 C343.562285,343.915241 343.640248,344.118272 343.620757,344.286164 C343.234844,347.222312 344.950013,347.546381 347.277185,347.394108 C349.448433,347.253547 351.658662,347.19498 353.818216,347.405821 C356.461136,347.667419 357.026362,346.511701 356.999075,344.110463 C356.882132,335.360586 357.053648,326.606804 356.897724,317.86083" id="beam" fill="#F6F6F6"></path>
        <path d="M247.114495,200 L254.468133,200 L254.468133,205.946996 L247.114495,205.946996 L247.114495,200 Z M240,244.572438 L242.809927,244.572438 C244.444068,244.572438 245.570032,244.272085 246.187817,243.671378 C246.805602,243.070671 247.114495,241.989399 247.114495,240.427562 L247.114495,210.392226 L254.468133,210.392226 L254.468133,240.908127 C254.468133,244.352179 253.611205,246.89517 251.897349,248.537102 C250.183494,250.179034 247.513067,251 243.886069,251 L240,251 L240,244.572438 Z M267.50141,238.5053 C264.990412,236.062425 263.734913,232.498231 263.734913,227.812721 L263.734913,224.088339 C263.734913,219.442851 264.990412,215.908693 267.50141,213.485866 C270.012408,211.063015 273.479977,209.85159 277.904117,209.85159 C282.288401,209.85159 285.726077,211.073028 288.217146,213.515901 C290.708215,215.958798 291.953751,219.482944 291.953751,224.088339 L291.953751,227.812721 C291.953751,232.498233 290.708215,236.062426 288.217146,238.5053 C285.726077,240.948175 282.288401,242.169611 277.904117,242.169611 C273.479977,242.16961 270.012408,240.948174 267.50141,238.5053 Z M284.600113,227.75265 L284.600113,224.208481 C284.600113,221.565371 284.022185,219.613074 282.866328,218.35159 C281.710471,217.090106 280.056402,216.459364 277.904117,216.459364 C273.360406,216.459364 271.08855,219.042403 271.08855,224.208481 L271.08855,227.75265 C271.08855,232.918728 273.360406,235.501767 277.904117,235.501767 C282.368114,235.501767 284.600113,232.918728 284.600113,227.75265 Z M301.160745,200 L308.514382,200 L308.514382,205.946996 L301.160745,205.946996 L301.160745,200 Z M301.160745,210.392226 L308.514382,210.392226 L308.514382,241.628975 L301.160745,241.628975 L301.160745,210.392226 Z M318.259447,210.392226 L325.493514,210.392226 L325.493514,213.756184 C326.609513,212.55477 327.954691,211.633686 329.529047,210.992933 C331.103404,210.352178 332.807295,210.031802 334.640722,210.031802 C338.227862,210.031802 341.01786,211.103063 343.010716,213.245583 C345.003573,215.388103 346,218.361601 346,222.166078 L346,241.628975 L338.586576,241.628975 L338.586576,223.667845 C338.586576,218.982332 336.533934,216.639576 332.428652,216.639576 C330.316225,216.639576 328.662155,217.250294 327.466441,218.471731 C326.270728,219.693169 325.672871,221.525325 325.672871,223.968198 L325.672871,241.628975 L318.259447,241.628975 L318.259447,210.392226 Z" id="join" fill="#F6F6F6"></path>
    </g>
</svg>