<?xml version="1.0" encoding="UTF-8"?>
<svg width="100px" height="40px" viewBox="0 0 100 40" version="1.1" xmlns="http://www.w3.org/2000/svg" xmlns:xlink="http://www.w3.org/1999/xlink">
    <!-- Generator: Sketch 52.3 (67297) - http://www.bohemiancoding.com/sketch -->
    <title>logo-beam</title>
    <desc>Created with Sketch.</desc>
    <g id="logo-beam" stroke="none" stroke-width="1" fill="none" fill-rule="evenodd">
        <path d="M99.693348,21.7015733 C99.552238,18.8596187 97.9845064,16.6752366 95.2864839,15.6775891 C92.4628736,14.6361976 89.6942962,14.8901956 87.3998482,17.1056219 C86.8706859,17.61644 86.5475441,17.6771173 86.0705924,17.1013886 C84.2432184,14.89584 80.2822618,14.6658307 77.8396484,15.8045881 C74.9666496,17.1423105 73.8377699,19.6173792 73.6176384,22.5482331 C73.4539509,24.7439041 73.5865942,26.9621527 73.5865942,29.1691125 L73.5428501,29.1691125 C73.5428501,31.4762603 73.5583722,33.7848193 73.5329724,36.090556 C73.5245058,36.728373 73.7347597,36.9781377 74.3852766,36.954149 C75.4055016,36.9132271 76.431371,36.9061716 77.4487738,36.9555601 C78.1543236,36.9894265 78.3546998,36.7241397 78.3462332,36.0439897 C78.3137779,33.5392879 78.3264778,31.0345861 78.3349444,28.5284732 C78.3419999,26.583978 78.301078,24.6366605 78.4083216,22.6978097 C78.5042763,20.9212353 79.4581797,19.9574542 81.0456667,19.7641336 C82.5244991,19.5849239 83.6237457,20.3356289 84.1190417,21.9471047 C84.2601516,22.4071231 84.2587405,22.9221745 84.2601516,23.4118261 C84.2700293,27.5322369 84.2968402,31.6526478 84.2446295,35.7730586 C84.2319296,36.7467173 84.5409604,37.0430483 85.4736973,36.9597934 C86.290724,36.8850051 87.1246838,36.8864162 87.9431216,36.9583823 C88.884325,37.0402261 89.1947669,36.7213175 89.1834781,35.7533032 C89.1355008,31.699214 89.152434,27.6451249 89.1750115,23.5910357 C89.1778337,22.9743852 89.2751996,22.3422126 89.4318317,21.7439063 C89.7450958,20.5472939 90.7610875,19.7994111 92.0550658,19.7232117 C93.1529013,19.65689 94.2309814,20.2495519 94.6345559,21.343154 C94.9012537,22.0628148 95.018375,22.8756082 95.0254305,23.6474797 C95.0621191,27.7340242 95.0578858,31.8219797 95.0296638,35.9085242 C95.0254305,36.6578181 95.2229845,36.9978931 96.0273112,36.9555601 C97.0475362,36.9019383 98.0719946,36.925927 99.0922196,36.9499157 C99.6905258,36.9640267 100.013668,36.8003391 99.9995566,36.1201891 C99.8993685,31.3139839 99.9318238,26.5007231 99.693348,21.7015733 M11.0959071,32.547426 C7.64012417,32.547426 4.85320245,29.7026492 4.83062486,26.1480893 C4.80663616,22.6132848 7.68527936,19.740286 11.2313727,19.7614525 C14.7153776,19.782619 17.371067,22.5300299 17.3724781,26.1184562 C17.3753003,29.770382 14.664578,32.547426 11.0959071,32.547426 M5.86354977,16.4524239 C5.58979645,16.6020005 5.30334323,16.7275884 4.80522507,16.9674753 L4.80522507,15.631164 C4.80522507,11.8084951 4.78546967,7.9858263 4.81933606,4.16315747 C4.82639156,3.3334309 4.62178212,2.93973411 3.71585617,3.00746689 C2.83109672,3.07519967 1.93363737,3.07096637 1.04746682,3.00887799 C0.189518258,2.94678961 -0.000980188933,3.3235532 0.00184201028,4.10671348 C0.0230085043,11.4557202 -0.0433131771,18.8061381 0.0596970941,26.1551448 C0.0808635881,27.7256987 0.436460689,29.3907962 1.05170012,30.8371733 C3.21914911,35.9481761 8.66176029,37.9956816 13.7769964,36.8724463 C19.9660792,35.5163796 23.7337152,28.4919258 21.649521,22.5413187 C19.3917617,16.0897713 11.8494343,13.181495 5.86354977,16.4524239 M29.7461284,23.7892952 C30.4799002,21.0630508 32.6064273,19.6307847 35.6840355,19.6900509 C38.369358,19.7408504 40.9714257,21.7192121 41.2635233,23.7892952 L29.7461284,23.7892952 Z M31.3674818,15.98027 C25.3872417,18.5710489 22.898062,25.1143177 25.5071851,30.7474274 C28.9516793,38.179689 38.7898657,39.2309582 43.6045376,33.5907931 C44.446964,32.6072566 45.2160133,31.5686873 45.6732096,30.1307768 C43.9855345,30.1307768 42.4587247,30.1166658 40.9305038,30.14771 C40.7456498,30.1519433 40.5396292,30.373486 40.3844083,30.5343513 C38.2423591,32.768122 35.6671023,33.1208969 32.8759473,32.1430049 C31.1529947,31.5390542 30.1962691,30.1632321 29.6445292,28.2413145 L30.9328631,28.2413145 C34.6214775,28.2413145 38.3086808,28.2511922 41.9987062,28.2370812 C44.2649322,28.2286146 45.9088632,26.9981357 46.117706,24.9393414 C46.2193051,23.9318163 46.0711397,22.8001144 45.7000205,21.8574999 C43.5001162,16.2850675 36.8905257,13.5898673 31.3674818,15.98027 Z M59.4562661,32.547426 C55.8960618,32.5530704 53.3800712,29.855048 53.2982274,26.1410338 C53.2206169,22.6796065 56.0033054,19.7431082 59.6298314,19.7501637 C63.0588034,19.7586303 65.7229594,22.5667185 65.7652924,26.1466782 C65.8062143,29.7605043 63.06727,32.5403705 59.4562661,32.547426 M70.5517423,26.2807327 C70.5319869,25.1744306 70.3739437,24.0511953 70.1241791,22.9731152 C68.6608688,16.6908998 61.3203287,13.6598578 55.6914524,15.8202513 C50.9727353,17.6306921 48.2831794,21.9119683 48.5216553,26.9495939 C48.8123418,33.1019882 54.3353856,37.7783723 60.4553246,37.109511 C62.274232,36.910546 63.9844847,36.4589941 65.4873058,35.4500579 C65.6016049,35.5544793 65.6608711,35.5911679 65.6919153,35.6433786 C65.7243705,35.6970003 65.7525925,35.7703775 65.745537,35.8310548 C65.6058382,36.8922017 66.226722,37.009323 67.0691485,36.9542901 C67.8551309,36.9034905 68.6552244,36.882324 69.4369736,36.9585234 C70.3936991,37.0530671 70.5983086,36.6353816 70.5884309,35.7675553 C70.5460979,32.6052811 70.6081863,29.4415958 70.5517423,26.2807327" id="Combined-Shape" fill="#096770"></path>
    </g>
</svg>