<?xml version="1.0" encoding="UTF-8"?>
<svg width="585px" height="584px" viewBox="0 0 585 584" version="1.1" xmlns="http://www.w3.org/2000/svg" xmlns:xlink="http://www.w3.org/1999/xlink">
    <!-- Generator: Sketch 52.3 (67297) - http://www.bohemiancoding.com/sketch -->
    <title>pic-intro</title>
    <desc>Created with Sketch.</desc>
    <defs>
        <polygon id="path-1" points="0.0739158936 0.945060316 5.88513807 0.945060316 5.88513807 7 0.0739158936 7"></polygon>
        <polygon id="path-3" points="0 0.842266784 5.96148094 0.842266784 5.96148094 6.80532183 0 6.80532183"></polygon>
        <path d="M0.00285714286,13.9682857 C1.38242857,17.5477143 7.40985714,14.9235714 7.40985714,14.9235714 L5.02357143,0.272857143 C3.33157143,12.1747143 1.169,11.3544286 0.00285714286,13.9682857" id="path-5"></path>
        <path d="M3.35115789,20.534717 C2.41136842,24.0937358 -4.67494737,52.9295094 10.416,61.8693962 C15.8690526,64.869283 22.9528421,64.8680377 23.5553684,64.8680377 C23.5818947,64.8680377 23.5945263,64.8680377 23.5970526,64.8680377 C37.6673684,65.7135849 45.2412632,43.4068302 45.5330526,39.2475849 C46.1393684,30.6090566 46.6509474,23.3378491 46.6509474,23.3378491 L46.7103158,22.4810943 L46.6938947,22.4798491 C46.7418947,22.1025283 46.7835789,21.7214717 46.8088421,21.3391698 C47.5818947,10.3582642 39.1781053,0.841811321 28.0395789,0.0809433962 C27.6063158,0.0510566038 27.1730526,0.0373584906 26.7397895,0.0373584906 C16.0395789,0.0361132075 5.544,8.93988679 3.35115789,20.534717" id="path-7"></path>
        <linearGradient x1="100.431534%" y1="19.568706%" x2="0.137547575%" y2="80.5913453%" id="linearGradient-9">
            <stop stop-color="#F9CAA7" offset="0%"></stop>
            <stop stop-color="#FBD6BC" offset="100%"></stop>
        </linearGradient>
        <polygon id="path-10" points="-0.000125128205 0.733052279 5.84598974 0.733052279 5.84598974 54.8525189 -0.000125128205 54.8525189"></polygon>
    </defs>
    <g id="Beam-WEB-Wireframes" stroke="none" stroke-width="1" fill="none" fill-rule="evenodd">
        <g id="Landing-Page" transform="translate(-1127.000000, -1166.000000)">
            <g id="pic-intro" transform="translate(1127.000000, 1166.000000)">
                <g id="background" transform="translate(169.000000, 0.000000)">
                    <path d="M230.000888,526.920729 C230.039337,525.218515 231.282919,524.002317 232.985484,524.000003 C234.713282,523.997689 236.043374,525.351591 235.998917,527.068848 C235.956864,528.721303 234.647198,529.994202 232.987887,529.999988 C231.254082,530.004617 229.961237,528.671544 230.000888,526.920729" id="Fill-1" fill="#B0B0B0"></path>
                    <path d="M103,89.010132 C102.99879,90.7829456 101.708077,92.0373386 99.9250286,91.9991514 C98.2411733,91.9609641 96.9903784,90.6787986 97.0000558,88.9985601 C97.0097331,87.3241075 98.2859309,86.0211127 99.9347059,86.0002833 C101.716544,85.9782967 103,87.2384756 103,89.010132" id="Fill-3" fill="#B0B0B0"></path>
                    <path d="M222.99539,524.163534 C222.912374,525.849879 221.585312,527.069022 219.912951,526.996966 C218.145541,526.917937 216.891872,525.551195 217.007373,523.82766 C217.121671,522.135503 218.415044,520.957037 220.112672,521.001201 C221.875269,521.046526 223.084422,522.372591 222.99539,524.163534" id="Fill-5" fill="#B0B0B0"></path>
                    <path d="M286.000154,337.974977 C286.017046,336.220602 287.34791,334.947322 289.104699,335.001676 C290.756515,335.052561 292.034289,336.394074 291.999298,338.03974 C291.960688,339.801054 290.63465,341.056987 288.871828,340.998007 C287.171748,340.941339 285.984468,339.691188 286.000154,337.974977" id="Fill-7" fill="#B0B0B0"></path>
                    <path d="M388.999833,283.956732 C389.016719,285.746459 387.755048,287.016064 385.975922,286.999846 C384.288467,286.983629 383.023177,285.726766 383.000259,284.042453 C382.978548,282.311805 384.32224,280.970379 386.0495,281.000497 C387.768316,281.030616 388.984152,282.246935 388.999833,283.956732" id="Fill-9" fill="#B0B0B0"></path>
                    <path d="M413.999745,271.966804 C414.020228,273.661421 412.805702,274.941361 411.12609,274.998119 C409.387439,275.056035 408.034352,273.770303 408.000615,272.030511 C407.966878,270.325469 409.32599,268.974872 411.051387,269.000355 C412.738229,269.024679 413.980467,270.273345 413.999745,271.966804" id="Fill-11" fill="#B0B0B0"></path>
                    <path d="M400.002061,241.99996 C398.226146,241.990676 396.975042,240.708297 397.000378,238.922251 C397.022094,237.23717 398.302153,235.990767 399.997235,236.000052 C401.773151,236.009336 403.042351,237.309122 402.998918,239.070798 C402.956692,240.773286 401.693524,242.008084 400.002061,241.99996" id="Fill-13" fill="#B0B0B0"></path>
                    <path d="M44.9999088,217.016321 C44.9866427,218.807164 43.7082732,220.045105 41.9197619,219.99874 C40.2277313,219.954694 38.9951901,218.683138 39.0000141,216.990821 C39.0072502,215.253298 40.3652163,213.950446 42.1151353,214.001447 C43.8264621,214.051289 45.0119689,215.29039 44.9999088,217.016321" id="Fill-15" fill="#B0B0B0"></path>
                    <path d="M387.056276,186.999119 C385.368629,187.037288 384.082114,185.830929 384.003815,184.135317 C383.921902,182.374935 385.167461,181.041347 386.928589,181.000865 C388.60419,180.962696 389.924434,182.192188 389.99671,183.861197 C390.073804,185.588037 388.78729,186.959794 387.056276,186.999119" id="Fill-17" fill="#B0B0B0"></path>
                    <path d="M109.999416,95.0933308 C109.970486,96.7620526 108.684327,98.0046192 106.988333,97.9999871 C105.257382,97.996513 103.951936,96.6416174 104.001358,94.9022557 C104.050779,93.2184795 105.340554,91.980545 107.023289,92.0002315 C108.797635,92.0222341 110.030756,93.3030157 109.999416,95.0933308" id="Fill-19" fill="#B0B0B0"></path>
                    <path d="M145.930886,77.0003724 C147.688444,76.9748782 149,78.261178 149,80.0110094 C149,81.6820404 147.728115,82.9752932 146.061922,82.9996286 C144.303162,83.0251228 142.99401,81.7353465 143.000021,79.9820386 C143.007234,78.2947841 144.255075,77.0247078 145.930886,77.0003724" id="Fill-21" fill="#B0B0B0"></path>
                    <path d="M142.99915,54.0736542 C142.96188,55.7821352 141.724744,56.9976736 140.021128,56.9999933 C138.288657,57.0034729 136.957745,55.6510705 137.001026,53.9321507 C137.043106,52.2689045 138.341557,51.0046518 140.012712,51.0000123 C141.765621,50.9953728 143.037623,52.3037004 142.99915,54.0736542" id="Fill-23" fill="#B0B0B0"></path>
                    <g id="Group-27" transform="translate(200.000000, 543.000000)">
                        <mask id="mask-2" fill="white">
                            <use xlink:href="#path-1"></use>
                        </mask>
                        <g id="Clip-26"></g>
                        <path d="M5.88508333,3.96911667 C5.89441667,5.67595 4.70908333,6.95228333 3.07225,6.99895 C1.39225,7.04678333 0.07275,5.71911667 0.0739166667,3.98311667 C0.0750833333,2.28795 1.28258333,0.991783333 2.90308333,0.946283333 C4.59825,0.899616667 5.87575,2.19345 5.88508333,3.96911667" id="Fill-25" fill="#B0B0B0" mask="url(#mask-2)"></path>
                    </g>
                    <path d="M379.998482,276.999935 C378.231487,276.989531 376.948483,275.673941 377.00159,273.925987 C377.052282,272.217338 378.303904,270.995389 379.997275,271.000013 C381.746167,271.004637 383.041239,272.3341 382.998996,274.079742 C382.957959,275.765269 381.679784,277.01034 379.998482,276.999935" id="Fill-28" fill="#B0B0B0"></path>
                    <path d="M327.000233,473.974981 C327.018318,472.255724 328.25051,471.016505 329.957735,471.000153 C331.732478,470.983802 333.024953,472.277916 332.999634,474.045059 C332.970698,475.849578 331.714393,477.042078 329.882984,476.998863 C328.162496,476.959152 326.980942,475.719933 327.000233,473.974981" id="Fill-30" fill="#B0B0B0"></path>
                    <path d="M324.999725,482.053604 C324.978016,483.779286 323.768301,484.98108 322.030316,484.999749 C320.258561,485.020751 318.968038,483.722114 319.000603,481.948592 C319.031961,480.231077 320.262179,479.012948 321.97966,479.000114 C323.753828,478.986112 325.021435,480.267248 324.999725,482.053604" id="Fill-32" fill="#B0B0B0"></path>
                    <path d="M257.999659,533.951823 C258.023757,535.738448 256.767072,537.01494 254.99711,536.999868 C253.305465,536.984796 252.030708,535.736129 252.000586,534.061965 C251.968054,532.333309 253.294622,530.996529 255.036871,531.000007 C256.728516,531.004644 257.976767,532.247514 257.999659,533.951823" id="Fill-34" fill="#B0B0B0"></path>
                    <path d="M19.0000595,357.005433 C18.99039,355.249221 20.1604011,354.030959 21.8876179,354.000619 C23.6861474,353.967945 25.0036186,355.232884 24.9999925,356.989096 C24.9963665,358.692796 23.7707556,359.953068 22.0725474,359.998577 C20.265557,360.047588 19.009729,358.825825 19.0000595,357.005433" id="Fill-36" fill="#B0B0B0"></path>
                    <path d="M188.999064,36.9300359 C189.040067,38.6639753 187.729176,40.001156 185.990164,39.9999993 C184.309039,39.9999993 183.030709,38.7484166 183.000559,37.0734706 C182.969204,35.3117697 184.259594,33.9919399 186.004636,34.0000371 C187.711086,34.0092909 188.959267,35.2307985 188.999064,36.9300359" id="Fill-38" fill="#B0B0B0"></path>
                    <path d="M299.999227,329.931008 C300.0354,331.722981 298.798285,332.99418 297.010134,332.99998 C295.31121,333.005779 294.031893,331.768216 294.000543,330.086429 C293.969193,328.352448 295.299153,326.989621 297.01134,327.00006 C298.731967,327.009338 299.963054,328.216745 299.999227,329.931008" id="Fill-40" fill="#B0B0B0"></path>
                    <path d="M48.9997953,203.018776 C48.9828709,204.727216 47.7546441,205.974041 46.0646233,205.999558 C44.2936072,206.027394 42.9868028,204.738815 43.0001006,202.979342 C43.0121894,201.225668 44.3540514,199.941728 46.1117698,200.002039 C47.8295949,200.061191 49.0179286,201.302217 48.9997953,203.018776" id="Fill-42" fill="#B0B0B0"></path>
                    <path d="M27.0168223,323.000116 C28.7512662,323.015176 30.0490922,324.365972 29.9985744,326.101385 C29.9492594,327.773082 28.6562447,329.011504 26.9711157,328.999919 C25.2186297,328.988335 23.9520767,327.667659 24.0013916,325.906759 C24.0495038,324.225795 25.3353017,322.986214 27.0168223,323.000116" id="Fill-44" fill="#B0B0B0"></path>
                    <path d="M156.999449,515.036505 C156.968204,516.803127 155.641513,518.063674 153.882205,517.997513 C152.198606,517.932512 150.971657,516.642947 151.000498,514.966861 C151.030541,513.271043 152.291138,512.008175 153.959115,512.000049 C155.73044,511.990764 157.030693,513.289614 156.999449,515.036505" id="Fill-46" fill="#B0B0B0"></path>
                    <path d="M357.996485,299.999841 C356.229811,299.982413 354.950869,298.667203 355.001449,296.918624 C355.050824,295.229299 356.326154,293.989609 358.008528,294.000066 C359.766772,294.011684 361.045714,295.329218 360.998748,297.083606 C360.952985,298.785711 359.684882,300.016106 357.996485,299.999841" id="Fill-48" fill="#B0B0B0"></path>
                    <path d="M82.9999155,418.033233 C82.989051,419.750519 81.7589546,420.994191 80.0641014,420.999981 C78.2859542,421.005771 76.9761852,419.713464 77.0003284,417.974176 C77.0232644,416.27426 78.2654325,415.028273 79.9626999,415.000481 C81.7299827,414.971532 83.0119871,416.252258 82.9999155,418.033233" id="Fill-50" fill="#B0B0B0"></path>
                    <path d="M333.998914,58.0800832 C333.95552,59.855686 332.640467,61.074237 330.850501,60.9964819 C329.160579,60.9245293 327.960036,59.6328653 328.001018,57.9350176 C328.042,56.2615409 329.341384,54.9907663 331.004787,55.0000505 C332.781495,55.0093347 334.042307,56.3056409 333.998914,58.0800832" id="Fill-52" fill="#B0B0B0"></path>
                    <path d="M210.054447,525.000726 C211.801338,525.035843 212.997592,526.243839 212.999997,527.973896 C213.002401,529.757798 211.721989,531.02081 209.929412,530.99974 C208.165689,530.978671 206.92976,529.651279 207.003098,527.854501 C207.074032,526.125615 208.31477,524.966781 210.054447,525.000726" id="Fill-54" fill="#B0B0B0"></path>
                    <path d="M85.9985282,469.08975 C85.9475275,470.854642 84.5996518,472.085666 82.8158416,471.995337 C81.0963894,471.90964 79.9598023,470.665877 80.0010886,468.918356 C80.0411606,467.192838 81.2736775,465.993082 83.0004156,466.00003 C84.7696542,466.00582 86.0495289,467.324857 85.9985282,469.08975" id="Fill-56" fill="#B0B0B0"></path>
                    <path d="M198.000449,40.0484399 C197.973739,38.3126853 199.141706,37.069038 200.863305,37.0027257 C202.654107,36.9340866 203.965339,38.1684269 203.999334,39.9576967 C204.033328,41.7399863 202.763376,43.0115546 200.959219,42.9999208 C199.218194,42.9894505 198.027159,41.8004818 198.000449,40.0484399" id="Fill-58" fill="#B0B0B0"></path>
                    <path d="M284.047342,324.000551 C285.795776,324.03185 287.073709,325.384689 286.996696,327.121238 C286.920887,328.807939 285.604447,330.049491 283.942652,329.998484 C282.160525,329.941681 280.931928,328.636371 281.002924,326.872 C281.070311,325.180662 282.355464,323.97041 284.047342,324.000551" id="Fill-60" fill="#B0B0B0"></path>
                    <path d="M363.000067,70.0349357 C362.989235,68.2742756 364.295031,66.9670839 366.034086,67.0006313 C367.700931,67.0330219 368.971825,68.307823 368.999506,69.9794089 C369.029593,71.6914831 367.682879,73.0171837 365.932992,72.9998316 C364.237263,72.9836363 363.010898,71.7435394 363.000067,70.0349357" id="Fill-62" fill="#B0B0B0"></path>
                    <path d="M332.999564,46.0359333 C332.971851,47.7943967 331.634434,49.0625305 329.877719,48.9976169 C328.188476,48.9361808 326.972752,47.654137 327.000464,45.9640647 C327.028177,44.271674 328.287277,43.0116544 329.95965,43.0000627 C331.73203,42.9896302 333.027276,44.2821066 332.999564,46.0359333" id="Fill-64" fill="#B0B0B0"></path>
                    <path d="M58.9999925,412.983678 C59.003599,414.75735 57.7076681,416.028773 55.9260637,415.999505 C54.2141847,415.971407 53.001203,414.730423 53.0000009,413.007093 C52.9987987,411.212349 54.268282,409.967852 56.0631102,410.000633 C57.7858086,410.032243 58.996386,411.26152 58.9999925,412.983678" id="Fill-66" fill="#B0B0B0"></path>
                    <path d="M61.979744,166.999999 C60.2549753,167.001169 59.0357214,165.802111 59.0008168,164.068448 C58.963505,162.265766 60.2080346,160.99301 62.0002053,161.000029 C63.7117344,161.005878 64.9731145,162.240031 64.9995939,163.92924 C65.0260732,165.706186 63.7550643,166.99766 61.979744,166.999999" id="Fill-68" fill="#B0B0B0"></path>
                    <path d="M412.946465,260.999444 C411.242838,260.970147 409.996398,259.706849 410.000008,258.016982 C410.006023,256.241568 411.304197,254.970067 413.081215,255.000536 C414.794467,255.029833 416,256.265006 416,257.993545 C415.998797,259.805288 414.754764,261.029913 412.946465,260.999444" id="Fill-70" fill="#B0B0B0"></path>
                    <path d="M133.995394,46.1412685 C133.906307,47.8294811 132.606122,49.0406405 130.930328,48.9989562 C129.166651,48.9537983 127.923048,47.6199019 128.003708,45.8610576 C128.084367,44.1184239 129.484474,42.8806329 131.228889,43.0091593 C132.904683,43.1342121 134.083276,44.4681085 133.995394,46.1412685" id="Fill-72" fill="#B0B0B0"></path>
                    <path d="M17.0000728,313.99358 C17.0109094,312.229967 18.3257489,310.952708 20.0788681,311.001343 C21.7489068,311.047663 23.0107673,312.349239 22.9999307,314.014424 C22.9890941,315.747929 21.6333165,317.049506 19.893442,316.998554 C18.1884854,316.948761 16.9892363,315.702768 17.0000728,313.99358" id="Fill-74" fill="#B0B0B0"></path>
                    <path d="M89.99916,91.9207216 C90.0377132,93.681466 88.7449755,95.0046427 86.9908039,94.9999878 C85.2812094,94.994169 84.0270249,93.7629281 84.0005196,92.0638621 C83.9716047,90.3450124 85.1522971,89.0742042 86.8450245,89.0032158 C88.634135,88.9287362 89.959402,90.1553222 89.99916,91.9207216" id="Fill-76" fill="#B0B0B0"></path>
                    <path d="M43.9290316,410.999647 C42.2087766,410.97624 41.0169974,409.760224 41.000144,408.01286 C40.9844944,406.222192 42.2460949,404.976917 44.0530248,405.000324 C45.7564263,405.022562 46.9927467,406.272518 46.9999696,407.98126 C47.0071925,409.762565 45.7251271,411.024225 43.9290316,410.999647" id="Fill-78" fill="#B0B0B0"></path>
                    <path d="M115.98877,104.999993 C114.295618,105.003479 113.043216,103.772806 113.001068,102.064507 C112.957715,100.300427 114.239019,98.9930551 116.004425,99.0000278 C117.709619,99.0058383 118.968042,100.237673 118.999352,101.930865 C119.033071,103.685648 117.74695,104.996506 115.98877,104.999993" id="Fill-80" fill="#B0B0B0"></path>
                    <path d="M376.030181,104.000069 C377.77151,104.010652 378.98177,105.21483 378.999833,106.95642 C379.016692,108.755632 377.754651,110.018608 375.95311,109.999793 C374.204556,109.982153 373.023198,108.79679 373.000318,107.036385 C372.977437,105.205423 374.19131,103.989485 376.030181,104.000069" id="Fill-82" fill="#B0B0B0"></path>
                    <path d="M96.999976,416.995131 C97.0060816,418.794976 95.8484614,419.971392 94.0412062,419.99957 C92.2217399,420.025399 91.0311495,418.886554 91.0006215,417.09023 C90.9688725,415.20233 92.1557995,413.988344 94.0216683,414.000084 C95.8057222,414.010651 96.9938704,415.205852 96.999976,416.995131" id="Fill-84" fill="#B0B0B0"></path>
                    <path d="M236.999959,55.0201328 C236.991488,56.8055226 235.712364,58.042807 233.922558,57.998866 C232.228354,57.9560814 230.990375,56.6841068 231.000056,54.9981623 C231.010948,53.3156868 232.265869,52.0390869 233.947971,52.0009276 C235.707523,51.9604557 237.00843,53.2486191 236.999959,55.0201328" id="Fill-86" fill="#B0B0B0"></path>
                    <path d="M353.000498,61.9178369 C353.02701,60.2402547 354.298345,59.0011577 355.99145,59.0000007 C357.70263,58.9988438 359.05832,60.3906586 358.998067,62.0855952 C358.936609,63.7689622 357.652018,65.0080592 355.976989,64.9999605 C354.20435,64.9907049 352.971577,63.7134285 353.000498,61.9178369" id="Fill-88" fill="#B0B0B0"></path>
                    <path d="M354.930788,423.999736 C353.190388,423.978587 352.008457,422.780137 352.000031,421.025935 C351.99281,419.205936 353.232514,417.973412 355.047537,418.000436 C356.756644,418.023935 357.992737,419.274083 357.999959,420.985986 C358.008384,422.769562 356.732572,424.020885 354.930788,423.999736" id="Fill-90" fill="#B0B0B0"></path>
                    <path d="M103.000234,421.977195 C103.02074,420.156343 104.274008,418.952212 106.095407,419.001456 C107.809452,419.048355 109.002409,420.291177 108.999996,422.025267 C108.99879,423.795702 107.686418,425.046732 105.885524,424.998661 C104.155798,424.952934 102.980935,423.723009 103.000234,421.977195" id="Fill-92" fill="#B0B0B0"></path>
                    <path d="M250.999693,71.9494839 C251.022595,73.7374106 249.761792,75.0138368 247.986301,74.9998868 C246.304828,74.9870993 245.034382,73.7281106 245.000632,72.044809 C244.966882,70.3022199 246.287953,68.9804562 248.047774,69.0002187 C249.778667,69.0199812 250.977997,70.2173573 250.999693,71.9494839" id="Fill-94" fill="#B0B0B0"></path>
                    <path d="M369.997351,428.097214 C369.928638,429.904337 368.629115,431.091541 366.824491,430.99446 C365.135594,430.903226 363.956621,429.604905 364.001224,427.884336 C364.048238,426.12166 365.399597,424.905215 367.1994,425.005806 C368.92205,425.101718 370.062448,426.36261 369.997351,428.097214" id="Fill-96" fill="#B0B0B0"></path>
                    <path d="M18.9560608,234.999987 C17.2350143,234.995298 16.01945,233.778447 16.0001935,232.038749 C15.9821406,230.234573 17.2289966,228.984898 19.0354937,229.000138 C20.7709826,229.015378 21.9793257,230.221678 21.9997857,231.959032 C22.0190422,233.724521 20.7384873,235.004676 18.9560608,234.999987" id="Fill-98" fill="#B0B0B0"></path>
                    <path d="M396.926018,227.999534 C395.151045,227.971392 393.935194,226.662796 394.002675,224.853509 C394.06654,223.134511 395.31613,221.96897 397.065798,222.000629 C398.788956,222.031116 399.993961,223.258805 399.999986,224.989528 C400.004806,226.778881 398.729911,228.027676 396.926018,227.999534" id="Fill-100" fill="#B0B0B0"></path>
                    <path d="M341.963722,42.9999605 C340.212747,42.9929362 339.022084,41.8093537 339.000347,40.0544672 C338.976196,38.2398748 340.213954,36.9872206 342.016855,37.0000984 C343.744887,37.0129761 344.971777,38.2281677 344.999551,39.9537866 C345.027325,41.7414528 343.764208,43.0081554 341.963722,42.9999605" id="Fill-102" fill="#B0B0B0"></path>
                    <path d="M74.009121,493.000031 C75.7816092,493.005898 76.9815035,494.182889 76.999739,495.929014 C77.0204059,497.77723 75.8120017,499.00468 73.9775129,498.999987 C72.1940834,498.995293 71.0209345,497.837077 71.0002676,496.058096 C70.9796007,494.191104 72.1576124,492.99299 74.009121,493.000031" id="Fill-104" fill="#B0B0B0"></path>
                    <path d="M59.0006134,182.956009 C59.0307278,181.246209 60.2738493,180.010574 61.9747094,180.000063 C63.7442302,179.989552 65.031921,181.292925 64.9993975,183.06112 C64.9680786,184.851505 63.6707511,186.066118 61.8675022,185.997212 C60.1401414,185.930642 58.9692944,184.690336 59.0006134,182.956009" id="Fill-106" fill="#B0B0B0"></path>
                    <path d="M188.000008,528.000996 C187.996391,526.186312 189.236862,524.967966 191.058388,525.000642 C192.75213,525.029817 194.01671,526.317016 193.999833,527.992827 C193.982956,529.70248 192.754541,530.960505 191.065621,530.999016 C189.266999,531.039861 188.00483,529.805176 188.000008,528.000996" id="Fill-108" fill="#B0B0B0"></path>
                    <path d="M72.9998424,411.031584 C72.9841649,412.791943 71.8035302,413.98819 70.06936,413.999917 C68.2423309,414.011645 66.9821028,412.772006 67.0001922,410.978809 C67.0182816,409.210241 68.3327779,407.9577 70.1272461,408.001093 C71.8602104,408.043314 73.0155199,409.260671 72.9998424,411.031584" id="Fill-110" fill="#B0B0B0"></path>
                    <path d="M125.977957,105.999971 C124.179027,105.992931 122.960087,104.726771 123.000999,102.909086 C123.039505,101.171196 124.259648,99.988352 126.002023,100.000087 C127.74199,100.011821 128.969353,101.211094 128.999436,102.931382 C129.030722,104.713863 127.757633,106.007012 125.977957,105.999971" id="Fill-112" fill="#B0B0B0"></path>
                    <path d="M103.000077,107.996093 C103.012244,106.170241 104.264288,104.950288 106.073606,105.001556 C107.81357,105.050494 109.012076,106.282099 108.999908,108.00658 C108.986524,109.809128 107.706495,111.044229 105.900827,110.998787 C104.151129,110.955675 102.989126,109.750869 103.000077,107.996093" id="Fill-114" fill="#B0B0B0"></path>
                    <path d="M210.082883,536.000549 C211.845722,536.030994 213.006026,537.217163 212.999976,538.981781 C212.993927,540.806117 211.750139,542.03327 209.938903,541.999313 C208.208731,541.966526 207.00729,540.740544 207.000031,539.001687 C206.992771,537.208967 208.266807,535.970104 210.082883,536.000549" id="Fill-116" fill="#B0B0B0"></path>
                    <path d="M116.999996,115.978106 C116.997556,117.774539 115.831069,118.97138 114.052054,118.999486 C112.193727,119.028762 110.974773,117.806158 111.000396,115.937118 C111.02602,114.147712 112.21203,112.990688 114.014228,113.000056 C115.801785,113.009425 117.002437,114.207437 116.999996,115.978106" id="Fill-118" fill="#B0B0B0"></path>
                    <path d="M306.989844,371.000003 C308.770832,371.002345 310.029556,372.292484 309.999472,374.081352 C309.970591,375.776562 308.701036,377.006994 306.988641,376.99997 C305.240145,376.992946 304.030758,375.811684 304.000674,374.079011 C303.966979,372.266728 305.200433,370.997662 306.989844,371.000003" id="Fill-120" fill="#B0B0B0"></path>
                    <path d="M62.000336,100.954355 C62.0244734,99.154741 63.3037535,97.9425419 65.1152625,98.0021008 C66.8217739,98.0593241 68.0226077,99.325243 67.9996772,101.046612 C67.9767467,102.821702 66.6576399,104.060761 64.8569927,103.997698 C63.1299645,103.938139 61.9774055,102.710759 62.000336,100.954355" id="Fill-122" fill="#B0B0B0"></path>
                    <path d="M197.998503,539.999985 C196.240733,539.995283 195.024559,538.807983 195.00038,537.075229 C194.974993,535.266065 196.222599,533.997652 198.022681,534.000003 C199.828808,534.004705 201.038937,535.26489 200.999042,537.09874 C200.960357,538.874989 199.791331,540.004688 197.998503,539.999985" id="Fill-124" fill="#B0B0B0"></path>
                    <path d="M146.952046,37.9998281 C145.192968,37.9845826 144.013407,36.8048201 144.000126,35.0480762 C143.985638,33.2268323 145.219529,31.9837425 147.025693,32.0001607 C148.808919,32.0165789 150.054883,33.3253413 149.998138,35.1207852 C149.945016,36.8552473 148.715955,38.0162463 146.952046,37.9998281" id="Fill-126" fill="#B0B0B0"></path>
                    <path d="M14.990349,348.999935 C13.195346,348.988223 11.9508908,347.704619 12.0014882,345.911555 C12.0496762,344.171194 13.267628,342.994166 15.0156477,343.000022 C16.7708957,343.007049 17.9768004,344.192275 17.9996897,345.932636 C18.022579,347.740925 16.7769192,349.010475 14.990349,348.999935" id="Fill-128" fill="#B0B0B0"></path>
                    <path d="M340.069307,465.000224 C341.837876,465.018984 343.009644,466.22312 342.99994,468.011151 C342.990236,469.803872 341.822107,470.982214 340.038982,470.999801 C338.232809,471.018561 336.948231,469.707729 337.001603,467.905628 C337.053763,466.143391 338.280116,464.981464 340.069307,465.000224" id="Fill-130" fill="#B0B0B0"></path>
                    <path d="M22.9996937,335.953715 C23.0227402,337.728051 21.7430516,339.013751 19.9721081,338.999889 C18.2690913,338.984872 17.024579,337.751154 17.0003195,336.049594 C16.977273,334.36074 18.2035906,333.062333 19.879922,333.002264 C21.673912,332.939885 22.9778601,334.172448 22.9996937,335.953715" id="Fill-132" fill="#B0B0B0"></path>
                    <path d="M65.9992206,153.066181 C65.9631302,154.870704 64.6927478,156.061994 62.8701823,155.997505 C61.1847602,155.940051 59.9600924,154.631508 60.0009949,152.93134 C60.0418973,151.154958 61.3591972,149.939045 63.1733417,150.002361 C64.8948541,150.060988 66.034108,151.296834 65.9992206,153.066181" id="Fill-134" fill="#B0B0B0"></path>
                    <path d="M308.986322,39.9999798 C307.185693,39.9941075 305.961168,38.7268802 306.000941,36.9100121 C306.037098,35.2411242 307.284522,33.960978 308.836872,34.0009092 C310.77731,34.0502359 311.968088,35.1530408 311.999424,36.9311521 C312.03076,38.7327524 310.780926,40.005852 308.986322,39.9999798" id="Fill-136" fill="#B0B0B0"></path>
                    <path d="M21.106655,252.001512 C22.8680503,252.050648 24.095252,253.398394 23.9941883,255.174329 C23.8979372,256.876559 22.6081723,258.047647 20.8840743,257.99851 C19.1900548,257.949374 17.9845096,256.680013 18.0001504,254.957894 C18.0169944,253.1609 19.287509,251.951205 21.106655,252.001512" id="Fill-138" fill="#B0B0B0"></path>
                    <path d="M367.915134,447.000591 C369.720058,446.968946 371,448.211313 371,449.996337 C371,451.733308 369.801935,452.961611 368.074073,452.999116 C366.272762,453.037794 365.008473,451.80363 365.000044,449.993993 C364.991616,448.257023 366.184864,447.029892 367.915134,447.000591" id="Fill-140" fill="#B0B0B0"></path>
                    <path d="M300.955282,323.999794 C299.184405,323.982173 298.017098,322.815625 298.000198,321.04642 C297.982091,319.212603 299.204926,317.980268 301.021675,318.000239 C302.764788,318.019036 303.977966,319.222001 303.999695,320.953613 C304.02263,322.746314 302.75151,324.018591 300.955282,323.999794" id="Fill-142" fill="#B0B0B0"></path>
                    <path d="M50.971645,179.99998 C49.1916304,179.992928 47.9533071,178.704788 48.0013506,176.906563 C48.046992,175.17298 49.2588914,174.004722 51.0172864,174.000021 C52.715627,173.994144 53.9719667,175.235272 53.9995917,176.944173 C54.0260157,178.735346 52.7672739,180.005856 50.971645,179.99998" id="Fill-144" fill="#B0B0B0"></path>
                    <path d="M330.989813,493.999971 C329.257742,493.992937 328.029502,492.78662 328.000574,491.062138 C327.969235,489.266144 329.225198,487.991833 331.021152,488.000039 C332.764072,488.007073 333.975437,489.199322 333.999544,490.935527 C334.027267,492.746761 332.788179,494.007005 330.989813,493.999971" id="Fill-146" fill="#B0B0B0"></path>
                    <path d="M359.999689,447.033223 C359.977992,448.844177 358.717154,450.049919 356.897016,449.998412 C355.188979,449.950416 353.97274,448.679119 354.000464,446.968839 C354.029394,445.245681 355.258891,444.014186 356.965723,444.000138 C358.779834,443.98492 360.022591,445.226951 359.999689,447.033223" id="Fill-148" fill="#B0B0B0"></path>
                    <path d="M266.976509,527.999776 C265.18101,527.982185 263.941777,526.689845 264.00211,524.896751 C264.061236,523.158776 265.288402,521.986053 267.034429,522.000125 C268.820275,522.014198 270.057094,523.31123 269.997968,525.110187 C269.942462,526.856371 268.727362,528.01854 266.976509,527.999776" id="Fill-150" fill="#B0B0B0"></path>
                    <path d="M55.9615183,194.000354 C57.7294028,193.97691 58.9397701,195.120939 58.997694,196.869803 C59.0592381,198.711268 57.8838664,199.967824 56.0737458,199.999473 C54.2986208,200.029949 52.9832664,198.735883 53.0001609,196.97647 C53.0182621,195.242844 54.2310429,194.023797 55.9615183,194.000354" id="Fill-152" fill="#B0B0B0"></path>
                    <path d="M342.884955,305.998518 C341.162007,305.949288 339.985683,304.715016 340.000132,302.970859 C340.015784,301.155202 341.272777,299.946717 343.090842,300.001808 C344.805361,300.053383 346.020214,301.315786 345.999745,303.021262 C345.976869,304.808788 344.678939,306.04892 342.884955,305.998518" id="Fill-154" fill="#B0B0B0"></path>
                    <path d="M79.9993462,523.073973 C79.9665799,524.863861 78.8088389,526.001173 77.017617,525.999999 C75.1827067,525.998825 73.9667146,524.761749 74.0006944,522.931956 C74.0346742,521.131506 75.3222667,519.93903 77.1693126,520.002409 C78.9180598,520.061094 80.0308989,521.270002 79.9993462,523.073973" id="Fill-156" fill="#B0B0B0"></path>
                    <path d="M375.999225,288.899634 C376.035362,290.71806 374.804295,292.002345 373.02515,291.999997 C371.303825,291.998823 370.053485,290.78967 370.001688,289.074551 C369.947483,287.290169 371.203846,286.00471 373.005877,286.000015 C374.791045,285.995319 375.964293,287.130514 375.999225,288.899634" id="Fill-158" fill="#B0B0B0"></path>
                    <path d="M405.000113,284.948848 C405.013385,283.178651 406.176481,282.014139 407.942842,282.000081 C409.76229,281.988365 411.041213,283.253629 410.998984,285.02617 C410.956756,286.82097 409.658529,288.051088 407.863211,287.998369 C406.143904,287.947993 404.986841,286.715532 405.000113,284.948848" id="Fill-160" fill="#B0B0B0"></path>
                    <path d="M370.076139,440.999378 C368.285359,441.032146 366.991617,439.765917 367.000041,437.989451 C367.008465,436.27501 368.236016,435.029846 369.946163,435.000589 C371.700838,434.970162 372.927185,436.120535 372.996987,437.861892 C373.067993,439.687509 371.87775,440.966611 370.076139,440.999378" id="Fill-162" fill="#B0B0B0"></path>
                    <path d="M13.9995838,221.042546 C13.9742862,222.798695 12.7804794,223.990577 11.0421716,223.999962 C9.2749521,224.008173 7.97272699,222.695461 8.0004339,220.934619 C8.02814082,219.136238 9.3098869,217.946703 11.1578178,218.001839 C12.8949211,218.052283 14.0248814,219.261761 13.9995838,221.042546" id="Fill-164" fill="#B0B0B0"></path>
                    <path d="M398.02774,286.999933 C396.204509,287.010475 394.978565,285.777011 395.000284,283.955512 C395.02321,282.205468 396.214162,281.013002 397.955342,281.000117 C399.766507,280.98606 401.022617,282.24061 400.999691,284.039852 C400.976765,285.766468 399.749614,286.989391 398.02774,286.999933" id="Fill-166" fill="#B0B0B0"></path>
                    <path d="M169.999584,518.957406 C170.025085,520.758125 168.876337,521.964079 167.102213,521.999272 C165.314732,522.033292 164.057909,520.871916 164.002051,519.134545 C163.942549,517.302152 165.183585,516.003523 166.998996,516.000004 C168.782834,515.997657 169.974083,517.17311 169.999584,518.957406" id="Fill-168" fill="#B0B0B0"></path>
                    <path d="M223.999957,64.0304712 C223.991523,65.7740846 222.795207,66.9810213 221.056752,66.9997698 C219.261675,67.0196901 217.977411,65.74479 218.000301,63.9660232 C218.023191,62.2329558 219.233965,61.0201603 220.962782,61.0002399 C222.783159,60.9803196 224.00839,62.2024895 223.999957,64.0304712" id="Fill-170" fill="#B0B0B0"></path>
                    <path d="M239.999181,69.9212122 C240.035424,71.6486415 238.864803,72.9236212 237.175919,72.9967092 C235.4218,73.0732776 234.045807,71.8052587 234.001109,70.0720287 C233.95641,68.331838 235.268375,66.9953715 237.016454,67.000012 C238.748828,67.0069728 239.962939,68.194943 239.999181,69.9212122" id="Fill-172" fill="#B0B0B0"></path>
                    <path d="M16.1529951,267.00366 C17.8325917,267.076246 19.0603599,268.406199 18.9977064,270.085032 C18.9302333,271.884449 17.6337872,273.071574 15.8180396,272.996647 C14.0468725,272.92289 12.8901919,271.590595 13.0082697,269.760738 C13.1179134,268.044442 14.3914669,266.927562 16.1529951,267.00366" id="Fill-174" fill="#B0B0B0"></path>
                    <path d="M103.005986,435.999807 C101.287109,436.017412 100.055908,434.826147 100.001855,433.094998 C99.9454004,431.295776 101.182607,430.009444 102.978359,430.000055 C104.698437,429.990666 105.940448,431.187799 105.998105,432.908386 C106.055761,434.675918 104.792128,435.981029 103.005986,435.999807" id="Fill-176" fill="#B0B0B0"></path>
                    <path d="M333.918869,404.999214 C332.146492,404.964134 330.995173,403.788949 331.000015,402.022078 C331.004858,400.208434 332.257871,398.971274 334.059304,399.000507 C335.80989,399.029741 337.07743,400.393189 336.996317,402.157721 C336.917626,403.891851 335.679141,405.034294 333.918869,404.999214" id="Fill-178" fill="#B0B0B0"></path>
                    <path d="M325.999384,394.034583 C325.964432,395.849996 324.689297,397.064178 322.887476,396.997375 C321.179662,396.935259 319.961173,395.649586 320.000946,393.9502 C320.043129,392.140647 321.323085,390.935841 323.132138,391.002644 C324.864056,391.067104 326.03072,392.30121 325.999384,394.034583" id="Fill-180" fill="#B0B0B0"></path>
                    <path d="M313.077554,383.000467 C314.87369,383.028631 316.06589,384.308912 315.997178,386.137214 C315.930878,387.878677 314.706131,389.031047 312.949775,388.999363 C311.205474,388.970025 309.995193,387.746072 310.000014,386.01517 C310.004836,384.219726 311.277802,382.972304 313.077554,383.000467" id="Fill-182" fill="#B0B0B0"></path>
                    <path d="M258.999957,60.9847233 C259.00838,62.6904398 257.780957,63.9615266 256.087835,63.9990149 C254.287614,64.0400177 253.004836,62.7970471 253.000023,61.009325 C252.994006,59.2766638 254.191345,58.0372077 255.904925,58.0008909 C257.721993,57.9622311 258.99033,59.1852861 258.999957,60.9847233" id="Fill-184" fill="#B0B0B0"></path>
                    <path d="M61.9156477,115.999116 C60.1411939,115.96162 58.9253198,114.645736 59.0035691,112.845916 C59.0782069,111.116402 60.3229731,109.963392 62.0721464,110.000888 C63.7767777,110.038384 65.0143209,111.306226 64.9998748,113.000588 C64.9818173,114.803923 63.7141783,116.037784 61.9156477,115.999116" id="Fill-186" fill="#B0B0B0"></path>
                    <path d="M72.9535636,115.000244 C74.7985512,114.980312 76.0120086,116.1844 75.9999104,118.023944 C75.9878121,119.776729 74.8046004,120.97261 73.0588187,120.999575 C71.2477062,121.026541 69.9749673,119.766178 70.0003736,117.971185 C70.0245702,116.203158 71.200523,115.019003 72.9535636,115.000244" id="Fill-188" fill="#B0B0B0"></path>
                    <path d="M344.084864,52.0007849 C345.837285,52.034795 347.010802,53.2568125 346.999925,55.0370646 C346.987839,56.8442902 345.683797,58.0674805 343.845568,57.9971148 C342.129405,57.9302674 340.931716,56.6179472 341.003022,54.8834328 C341.077953,53.1160811 342.307064,51.965602 344.084864,52.0007849" id="Fill-190" fill="#B0B0B0"></path>
                    <path d="M33.0473244,366.999707 C31.2324334,367.020882 30.0500228,365.892717 30.0014639,364.094006 C29.951691,362.238828 31.1753766,360.988318 33.0266868,361.000082 C34.8063726,361.011846 35.9778574,362.191772 35.9997089,363.995189 C36.0215604,365.748021 34.8112284,366.979708 33.0473244,366.999707" id="Fill-192" fill="#B0B0B0"></path>
                    <path d="M32.9775441,218.000013 C34.8101652,217.995324 36.0331198,219.223907 35.9993165,221.0363 C35.9667205,222.800629 34.7836055,223.987009 33.046358,223.999904 C31.2608201,224.0128 29.9726734,222.723257 30.0004404,220.950722 C30.0270001,219.219217 31.2535765,218.00353 32.9775441,218.000013" id="Fill-194" fill="#B0B0B0"></path>
                    <path d="M93.9982474,438.000001 C95.8216802,438.001174 97.0284524,439.23543 96.9994899,441.068042 C96.9717341,442.818527 95.7734093,443.996467 94.0175557,443.999987 C92.2122244,444.00468 90.9680423,442.738746 91.0006251,440.934292 C91.0320012,439.214312 92.2737698,437.998828 93.9982474,438.000001" id="Fill-196" fill="#B0B0B0"></path>
                    <path d="M392.000048,210.029708 C391.991534,208.215381 393.127505,207.037125 394.916598,207.000745 C396.782315,206.965538 398.019234,208.181348 397.999774,210.030881 C397.980314,211.805306 396.775017,212.997645 394.995654,212.999992 C393.224804,213.003513 392.009777,211.797092 392.000048,210.029708" id="Fill-198" fill="#B0B0B0"></path>
                    <path d="M53.0444951,207.000171 C54.8062215,207.016606 55.9975874,208.222166 55.9999991,209.991183 C56.0012049,211.748461 54.7905456,212.982194 53.0469067,212.999802 C51.2417702,213.018584 49.9394674,211.697984 50.0021708,209.914881 C50.0636685,208.15056 51.2815628,206.983737 53.0444951,207.000171" id="Fill-200" fill="#B0B0B0"></path>
                    <path d="M187.934656,18.0007053 C189.730519,17.9678616 190.935829,19.0845468 190.997547,20.8381648 C191.061685,22.6656811 189.862426,23.9676984 188.085925,23.9993691 C186.27796,24.0322128 184.991571,22.779461 185.000042,20.9906533 C185.007302,19.2288244 186.179938,18.033549 187.934656,18.0007053" id="Fill-202" fill="#B0B0B0"></path>
                    <path d="M118.081521,517.999692 C116.112331,517.974649 114.964739,516.848887 115.000826,514.976592 C115.036914,513.18539 116.230217,512.001193 118.000925,512.000001 C119.808924,511.998808 121.064779,513.317762 120.997415,515.144741 C120.93366,516.919247 119.807721,518.021158 118.081521,517.999692" id="Fill-204" fill="#B0B0B0"></path>
                    <path d="M23.9410547,301.000346 C25.6891572,300.976916 26.9372854,302.144917 26.9975233,303.860016 C27.0625802,305.668836 25.8397518,306.977419 24.0639399,306.999678 C22.2568044,307.023108 20.979762,305.764901 21.0002428,303.981854 C21.019519,302.23981 22.2206617,301.022605 23.9410547,301.000346" id="Fill-206" fill="#B0B0B0"></path>
                    <path d="M329.971925,308.000022 C331.754828,307.994158 332.974136,309.17859 332.999588,310.939992 C333.026253,312.760029 331.754828,314.02655 329.931928,313.999577 C328.173265,313.974951 326.995167,312.761201 327.000015,310.976345 C327.003651,309.210253 328.20599,308.005885 329.971925,308.000022" id="Fill-208" fill="#B0B0B0"></path>
                    <path d="M295.000024,346.015478 C294.99396,344.229026 296.160649,343.027508 297.933725,343.000547 C299.774716,342.97007 301.025086,344.21496 300.999618,346.051817 C300.976575,347.800758 299.734694,349.010481 297.974959,348.999932 C296.207947,348.990554 295.0073,347.786691 295.000024,346.015478" id="Fill-210" fill="#B0B0B0"></path>
                    <path d="M345.072579,408.000383 C346.82371,408.025007 347.993943,409.21166 347.999968,410.969361 C348.0072,412.799762 346.771887,414.033319 344.967728,413.999314 C343.182851,413.967654 341.930666,412.643809 342.002977,410.867347 C342.075288,409.141305 343.322653,407.975759 345.072579,408.000383" id="Fill-212" fill="#B0B0B0"></path>
                    <path d="M390.029667,174.999971 C388.211973,175.006999 386.96924,173.75714 387.000579,171.955563 C387.031919,170.203184 388.222822,169.01658 389.970604,169.000181 C391.766601,168.98261 393.022594,170.247697 392.999692,172.052788 C392.97679,173.802824 391.778655,174.992942 390.029667,174.999971" id="Fill-214" fill="#B0B0B0"></path>
                    <path d="M176.00032,525.046864 C175.977297,523.216709 177.197551,521.986068 179.021269,522.000119 C180.783186,522.015341 181.981629,523.201487 181.999805,524.946164 C182.017982,526.748217 180.762586,528.010473 178.961892,527.999935 C177.227846,527.991738 176.022132,526.789199 176.00032,525.046864" id="Fill-216" fill="#B0B0B0"></path>
                    <path d="M70.0062098,144.999801 C68.2480853,145.017361 67.0547281,143.868937 67.0017436,142.108253 C66.9475548,140.291377 68.1613832,139.01652 69.9592462,139.000131 C71.7137581,138.984912 73.016697,140.29606 72.9998383,142.060256 C72.9829795,143.750699 71.7294127,144.982241 70.0062098,144.999801" id="Fill-218" fill="#B0B0B0"></path>
                    <path d="M150.999864,7.98515282 C151.014505,9.76989364 149.842077,10.9690712 148.055985,10.9994597 C146.260133,11.0286794 145.041345,9.8704095 145.001085,8.09735656 C144.958385,6.24365718 146.179613,4.98954657 148.016945,5.00006567 C149.785956,5.01058477 150.985224,6.21093109 150.999864,7.98515282" id="Fill-220" fill="#B0B0B0"></path>
                    <path d="M354.999892,460.020044 C354.986613,461.786982 353.780637,462.998831 352.037463,462.999999 C350.223066,463.001168 348.951902,461.709854 349.001396,459.916038 C349.048477,458.220385 350.358271,456.975816 352.067643,457.000357 C353.798744,457.026066 355.013171,458.277647 354.999892,460.020044" id="Fill-222" fill="#B0B0B0"></path>
                    <path d="M87.0306578,450.000055 C88.7496629,450.008251 89.9706498,451.223645 89.9995204,452.954234 C90.028391,454.737514 88.7508659,456.02082 86.9669018,455.999744 C85.1757201,455.979839 83.9487185,454.69302 84.001648,452.892177 C84.0521716,451.179151 85.2960144,449.990688 87.0306578,450.000055" id="Fill-224" fill="#B0B0B0"></path>
                    <path d="M142.999992,42.0135895 C143.003661,43.7696434 141.800105,44.9764213 140.020455,44.9996957 C138.249368,45.0218064 137.029911,43.8371391 137.000556,42.0647932 C136.969978,40.2074957 138.20289,38.9658061 140.043695,39.0007178 C141.80989,39.0333019 142.996322,40.243571 142.999992,42.0135895" id="Fill-226" fill="#B0B0B0"></path>
                    <path d="M398.999985,193.98996 C398.995159,195.813325 397.751301,197.036729 395.937994,196.999158 C394.218792,196.96511 393.024398,195.741706 393.000269,193.994657 C392.978553,192.222952 394.274289,190.965499 396.088802,191.000722 C397.839372,191.033596 399.004811,192.229996 398.999985,193.98996" id="Fill-228" fill="#B0B0B0"></path>
                    <path d="M308.999119,355.084938 C308.961793,356.865651 307.646928,358.072695 305.831162,357.996596 C304.139418,357.925181 302.950983,356.626817 303.001554,354.908154 C303.052126,353.159052 304.257419,351.996496 306.014184,352.000008 C307.808276,352.00352 309.03765,353.273785 308.999119,355.084938" id="Fill-230" fill="#B0B0B0"></path>
                    <path d="M13.995405,299.199614 C13.9121643,300.920406 12.6478714,302.060592 10.8925793,301.997508 C9.12522327,301.933256 7.88747088,300.565266 8.00810952,298.811763 C8.12512899,297.106158 9.41958154,295.942607 11.1326502,296.002187 C12.8975934,296.062934 14.0834712,297.386531 13.995405,299.199614" id="Fill-232" fill="#B0B0B0"></path>
                    <path d="M370.999991,82.9960859 C370.997572,84.8163137 369.763479,86.02198 367.925649,85.9996963 C366.210018,85.9785854 365.014641,84.7494625 365.000123,82.9949131 C364.985604,81.2016604 366.260833,79.9666734 368.088984,80.0006854 C369.846962,80.0346974 371.003621,81.2239441 370.999991,82.9960859" id="Fill-234" fill="#B0B0B0"></path>
                    <path d="M70.9749021,132.999895 C69.2515789,132.987013 67.9975966,131.724553 68.0000035,130.003017 C68.0024103,128.296706 69.2660202,127.022535 70.977309,127.000284 C72.7764488,126.978033 74.0376517,128.266257 73.9991417,130.083824 C73.9606317,131.841664 72.7463628,133.012777 70.9749021,132.999895" id="Fill-236" fill="#B0B0B0"></path>
                    <path d="M265.000058,59.014665 C264.990421,57.16801 266.190155,55.976847 268.036734,56.0003413 C269.773699,56.022661 270.989092,57.238493 270.999933,58.9641522 C271.010774,60.7274024 269.699017,62.0254646 267.930734,61.9996208 C266.197383,61.9749518 265.008489,60.7638186 265.000058,59.014665" id="Fill-238" fill="#B0B0B0"></path>
                    <g id="Group-242" transform="translate(0.000000, 270.000000)">
                        <mask id="mask-4" fill="white">
                            <use xlink:href="#path-3"></use>
                        </mask>
                        <g id="Clip-241"></g>
                        <path d="M5.96148,3.82491667 C5.96028,5.62741667 4.71468,6.83958333 2.90268,6.80458333 C1.19988,6.77075 -0.00852,5.52358333 -0.00012,3.80858333 C0.00948,2.01191667 1.25748,0.81025 3.07788,0.842916667 C4.80948,0.87325 5.96268,2.06791667 5.96148,3.82491667" id="Fill-240" fill="#B0B0B0" mask="url(#mask-4)"></path>
                    </g>
                    <path d="M133.060755,77.0004305 C134.815898,77.0250237 136.019215,78.2652235 135.999768,80.0277358 C135.979105,81.7914193 134.75877,82.9988281 132.99512,82.9999992 C131.164618,83.0011703 129.952792,81.7398907 130.001411,79.8860322 C130.047599,78.1071244 131.248486,76.9746662 133.060755,77.0004305" id="Fill-243" fill="#B0B0B0"></path>
                    <path d="M409.034358,247.999792 C407.229333,248.018566 405.978589,246.7654 406.000278,244.959574 C406.020762,243.215937 407.217284,242.022613 408.965675,242.000319 C410.75383,241.976852 412.020239,243.249965 411.999755,245.047577 C411.979271,246.788868 410.780339,247.982191 409.034358,247.999792" id="Fill-245" fill="#B0B0B0"></path>
                    <path d="M141.063067,66.000263 C142.889421,66.0214211 144.054717,67.2579973 143.99802,69.1163878 C143.944942,70.8666368 142.736219,72.0185804 140.968974,71.9997731 C139.252395,71.9809659 138.020752,70.7479161 138.000244,69.025878 C137.979737,67.2368391 139.252395,65.9791048 141.063067,66.000263" id="Fill-247" fill="#B0B0B0"></path>
                    <path d="M10.0000036,283.002898 C10.002435,281.239473 11.1974392,280.022396 12.9455736,280.000309 C14.7508445,279.977061 16.033377,281.266209 15.9993382,283.069158 C15.9665151,284.795385 14.6924923,286.022924 12.9613773,285.999675 C11.2108116,285.975264 9.99757231,284.746562 10.0000036,283.002898" id="Fill-249" fill="#B0B0B0"></path>
                    <path d="M179.999928,11.007133 C179.989002,12.8039167 178.710606,14.0461517 176.92231,13.9986852 C175.204428,13.9546917 173.98795,12.7078258 174.00009,11.0048176 C174.013445,9.22424204 175.302766,7.97042974 177.091063,8.0005305 C178.777379,8.02715809 180.010854,9.30296709 179.999928,11.007133" id="Fill-251" fill="#B0B0B0"></path>
                    <path d="M163.999996,12.9977675 C163.996356,14.7569412 162.79383,15.9763553 161.037972,15.999671 C159.296675,16.0229868 158.033477,14.8047385 158.000714,13.0700463 C157.965524,11.2502516 159.23479,9.97021656 161.041612,10.000527 C162.803537,10.0308375 164.002423,11.2467542 163.999996,12.9977675" id="Fill-253" fill="#B0B0B0"></path>
                    <path d="M18.0004113,215.943396 C18.0272212,214.199613 19.2287939,213.008145 20.9702212,213.000039 C22.7811106,212.991934 24.0204609,214.237824 23.9997442,216.046448 C23.980246,217.831915 22.6604659,219.072015 20.8593255,218.996752 C19.1459268,218.926121 17.97482,217.674441 18.0004113,215.943396" id="Fill-255" fill="#B0B0B0"></path>
                    <path d="M284.99947,48.9216897 C285.02875,50.7690566 283.842896,51.9823399 281.992133,51.999856 C280.246291,52.0150366 279.032376,50.8286114 279.000656,49.0746639 C278.967716,47.2401422 280.177971,45.9988331 281.999453,46.0000008 C283.770915,46.0011686 284.97263,47.1700777 284.99947,48.9216897" id="Fill-257" fill="#B0B0B0"></path>
                    <path d="M217.999967,45.0183581 C217.992724,46.7902925 216.831394,47.9786137 215.085777,47.9997081 C213.27135,48.0219745 211.983264,46.7680262 212.000164,44.9984355 C212.017065,43.2124381 213.308773,41.9666931 215.107507,42.0006787 C216.818115,42.0323203 218.00721,43.2722057 217.999967,45.0183581" id="Fill-259" fill="#B0B0B0"></path>
                    <path d="M128.999967,90.0261041 C128.993885,91.7865144 127.782499,92.9905741 126.007988,92.9999442 C124.215234,93.0093143 123.018443,91.83805 123.000199,90.056557 C122.981955,88.2047881 124.221315,86.9655905 126.056638,87.0007284 C127.816554,87.0346951 129.007264,88.2586663 128.999967,90.0261041" id="Fill-261" fill="#B0B0B0"></path>
                    <path d="M78.9999141,480.955557 C79.0120865,482.738515 77.7291179,484.018349 75.948299,483.999801 C74.2173869,483.982412 73.014756,482.770975 73.0001491,481.032069 C72.984325,479.213174 74.2295593,477.969277 76.0322884,478.000578 C77.7814591,478.031878 78.9877417,479.232882 78.9999141,480.955557" id="Fill-263" fill="#B0B0B0"></path>
                    <path d="M371.948546,97.9997884 C370.137832,97.9810877 368.952924,96.7328154 369.001436,94.8907955 C369.047522,93.1843558 370.319752,91.9758225 372.041931,92.0003672 C373.767749,92.0260806 374.991467,93.2579898 374.999956,94.9784551 C375.008446,96.7959303 373.773813,98.0184891 371.948546,97.9997884" id="Fill-265" fill="#B0B0B0"></path>
                    <path d="M76.999869,93.9845664 C77.0144611,95.7037832 75.8081869,96.9545453 74.0899758,96.9987172 C72.2805645,97.0452139 71.0134903,95.8235122 71.0001142,94.0182766 C70.9867382,92.2676745 72.1492363,91.0552722 73.8917674,91.001801 C75.6853707,90.9460049 76.984061,92.1921173 76.999869,93.9845664" id="Fill-267" fill="#B0B0B0"></path>
                    <path d="M302.998542,365.049302 C302.949848,366.826475 301.741029,368.006975 299.979537,367.999969 C298.170568,367.992963 296.944706,366.6992 297.001921,364.858974 C297.056702,363.105155 298.308128,361.949175 300.096401,362.00172 C301.872501,362.054264 303.047235,363.288477 302.998542,365.049302" id="Fill-269" fill="#B0B0B0"></path>
                    <path d="M34.9995681,399.934607 C35.0263488,401.754393 33.8053892,403.002312 31.9989046,402.999997 C30.2569373,402.998839 29.0335431,401.807643 29.0006758,400.081625 C28.9665912,398.283834 30.2252873,396.993082 32.0049912,397.000028 C33.7323508,397.006974 34.9740046,398.22248 34.9995681,399.934607" id="Fill-271" fill="#B0B0B0"></path>
                    <path d="M388.000698,272.105363 C387.96663,270.294639 389.183322,269.021113 390.968208,269.000274 C392.70686,268.979434 393.935718,270.151078 393.997769,271.887705 C394.059821,273.672958 392.821229,274.976586 391.037559,274.999741 C389.332975,275.02058 388.032332,273.782944 388.000698,272.105363" id="Fill-273" fill="#B0B0B0"></path>
                    <path d="M24.9999395,241.983533 C25.0096725,243.782265 23.8441422,244.982201 22.0702975,244.999778 C20.2709036,245.018527 19.0348088,243.849058 19.0007432,242.09837 C18.965461,240.241048 20.1893895,238.987209 22.0264989,239.000098 C23.80886,239.010645 24.9902065,240.196519 24.9999395,241.983533" id="Fill-275" fill="#B0B0B0"></path>
                    <path d="M238.069381,31.0005215 C239.889254,31.0286934 241.006078,32.1755261 240.999975,34.0102236 C240.993872,35.7850557 239.786726,36.9929275 238.012014,36.9999705 C236.173832,37.0070135 234.963024,35.7510146 235.000862,33.8811022 C235.037479,32.0874888 236.226317,30.9723496 238.069381,31.0005215" id="Fill-277" fill="#B0B0B0"></path>
                    <path d="M244.99994,535.002997 C245.009697,536.787226 243.830311,537.98219 242.041109,537.999797 C240.211659,538.017405 239.028615,536.888176 239.000563,535.09573 C238.970072,533.216421 240.179949,531.976851 242.022815,532.000328 C243.80348,532.023804 244.990183,533.219942 244.99994,535.002997" id="Fill-279" fill="#B0B0B0"></path>
                    <path d="M49.9627009,163.000256 C51.7726281,162.980312 52.971553,164.127671 52.9994915,165.907368 C53.0286447,167.762148 51.8017813,169.016265 49.9736334,168.999841 C48.2232273,168.984589 46.9963639,167.74455 47.0000081,165.994182 C47.0036522,164.203927 48.1746387,163.0202 49.9627009,163.000256" id="Fill-281" fill="#B0B0B0"></path>
                    <path d="M223.000137,74.9912617 C223.014723,73.1761653 224.281298,71.9513252 226.088781,72.0014853 C227.824548,72.0504789 228.992665,73.2613208 228.999958,75.019258 C229.008467,76.8051916 227.713935,78.0486959 225.900375,77.9985358 C224.139082,77.9495422 222.98555,76.7538649 223.000137,74.9912617" id="Fill-283" fill="#B0B0B0"></path>
                    <path d="M231.999265,44.9190347 C232.033372,46.7177508 230.877388,47.9529005 229.118439,47.9986903 C227.324166,48.0444801 226.060988,46.8856466 226.002519,45.1397649 C225.937959,43.2670806 227.119524,42.0190158 228.973484,42.0002303 C230.790902,41.9814447 231.965158,43.113274 231.999265,44.9190347" id="Fill-285" fill="#B0B0B0"></path>
                    <path d="M317.999923,315.986943 C318.010847,317.794326 316.862631,318.97734 315.078406,318.999639 C313.224997,319.024285 311.977253,317.78611 312.000314,315.949387 C312.020948,314.21829 313.285685,312.989505 315.035924,313.000068 C316.810439,313.01063 317.988999,314.198339 317.999923,315.986943" id="Fill-287" fill="#B0B0B0"></path>
                    <path d="M109.999992,519.996359 C109.995163,521.733996 108.802467,522.965503 107.089475,522.999323 C105.310088,523.034309 103.948386,521.709506 104.001502,519.991694 C104.040132,518.701878 105.831591,516.970072 107.096718,517.000393 C108.847132,517.042376 110.003613,518.235398 109.999992,519.996359" id="Fill-289" fill="#B0B0B0"></path>
                    <path d="M122.999989,524.82572 C122.995161,526.71405 121.843742,527.968397 120.084025,527.999353 C118.290513,528.034024 116.977364,526.67195 117.000296,524.800955 C117.024435,522.790039 118.149302,521.993845 120.955435,522.000036 C122.103233,522.002512 123.00361,523.245714 122.999989,524.82572" id="Fill-291" fill="#B0B0B0"></path>
                    <path d="M372.013495,135.999605 C370.177659,135.973906 368.963424,134.738 369.000841,132.936709 C369.034637,131.318817 370.379227,129.935724 371.854172,130.002309 C372.787178,130.04553 375.034599,132.371323 374.999596,133.256782 C374.933211,134.90271 373.711734,136.024137 372.013495,135.999605" id="Fill-293" fill="#B0B0B0"></path>
                    <path d="M317.113745,28 C315.912726,27.7921767 314.662068,27.6963411 313.536112,27.3119218 C313.178954,27.1891661 313.023984,26.3008022 313.002191,25.7570158 C312.938024,24.1051974 314.290381,22.9530163 316.114914,23.0014725 C317.866804,23.0488519 319.106566,24.1934953 318.99276,25.8076256 C318.92496,26.7605978 318.904378,27.9138556 317.113745,28" id="Fill-295" fill="#B0B0B0"></path>
                    <path d="M328.987499,21.9999798 C327.186853,21.9941075 325.962318,20.7268802 326.000886,18.9100121 C326.038248,17.2411242 327.285684,15.960978 328.838048,16.0009092 C330.778503,16.0502359 331.969292,17.1530408 331.999423,18.9311521 C332.03076,20.7327524 330.782119,22.005852 328.987499,21.9999798" id="Fill-297" fill="#B0B0B0"></path>
                    <path d="M338.986322,29.9999798 C337.185693,29.9941075 335.961168,28.7268802 336.000941,26.9100121 C336.037098,25.2411242 337.285728,23.960978 338.836872,24.0009092 C340.777309,24.0502359 341.968087,25.1530408 341.999423,26.9311521 C342.03076,28.7327524 340.78213,30.005852 338.986322,29.9999798" id="Fill-299" fill="#B0B0B0"></path>
                    <path d="M291.9869,38.9999798 C290.186615,38.9941075 288.962325,37.7268802 289.000886,35.9100121 C289.038241,34.2411242 290.285426,32.960978 291.837478,33.0009092 C293.777544,33.0502359 294.968094,34.1530408 294.999424,35.9311521 C295.030754,37.7327524 293.781159,39.005852 291.9869,38.9999798" id="Fill-301" fill="#B0B0B0"></path>
                    <path d="M375.987499,123.99998 C374.186853,123.994108 372.962318,122.728055 373.000886,120.910012 C373.038248,119.241124 374.285684,117.960978 375.838048,118.000909 C377.777298,118.050236 378.968087,119.153041 378.999423,120.931152 C379.03076,122.733927 377.782119,124.005852 375.987499,123.99998" id="Fill-303" fill="#B0B0B0"></path>
                    <path d="M364.986294,148.99998 C363.186853,148.994108 361.962318,147.728055 362.000886,145.910012 C362.038249,144.241124 363.285684,142.960978 364.836843,143.000909 C366.777298,143.050236 367.968087,144.153041 367.999423,145.931152 C368.03076,147.732752 366.782119,149.005852 364.986294,148.99998" id="Fill-305" fill="#B0B0B0"></path>
                    <path d="M375.986322,154.99998 C374.185693,154.994108 372.961168,153.72688 373.000941,151.910012 C373.037098,150.241124 374.284522,148.960978 375.836872,149.000909 C377.77731,149.050236 378.968088,150.153041 378.999424,151.931152 C379.03076,153.732752 377.780926,155.005852 375.986322,154.99998" id="Fill-307" fill="#B0B0B0"></path>
                    <path d="M385.986322,162.99998 C384.185693,162.994108 382.961168,161.72688 383.000941,159.910012 C383.037098,158.241124 384.285728,156.960978 385.836872,157.000909 C387.777309,157.050236 388.968087,158.153041 388.999423,159.931152 C389.03076,161.732752 387.78213,163.005852 385.986322,162.99998" id="Fill-309" fill="#B0B0B0"></path>
                    <path d="M336.986322,504.99998 C335.185693,504.994108 333.961168,503.72688 334.000941,501.910012 C334.037098,500.241124 335.285728,498.960978 336.836872,499.000909 C338.777309,499.050236 339.968087,500.153041 339.999423,501.932327 C340.03076,503.733927 338.78213,505.005852 336.986322,504.99998" id="Fill-311" fill="#B0B0B0"></path>
                    <path d="M338.986294,518.99998 C337.186853,518.994108 335.962318,517.72688 336.000886,515.910012 C336.038249,514.241124 337.285684,512.960978 338.836843,513.000909 C340.777298,513.050236 341.968087,514.153041 341.999423,515.931152 C342.03076,517.733927 340.782119,519.005852 338.986294,518.99998" id="Fill-313" fill="#B0B0B0"></path>
                    <path d="M336.9869,529.99998 C335.186615,529.994108 333.962325,528.72688 334.000886,526.910012 C334.038241,525.241124 335.285426,523.960978 336.837478,524.000909 C338.777544,524.050236 339.968094,525.153041 339.999424,526.931152 C340.030754,528.733927 338.781159,530.005852 336.9869,529.99998" id="Fill-315" fill="#B0B0B0"></path>
                    <path d="M325.986322,524.99998 C324.185693,524.994108 322.961168,523.728055 323.000941,521.910012 C323.037098,520.241124 324.285728,518.960978 325.836872,519.000909 C327.777309,519.05141 328.968087,520.153041 328.999423,521.932327 C329.03076,523.733927 327.78213,525.005852 325.986322,524.99998" id="Fill-317" fill="#B0B0B0"></path>
                    <path d="M318.987499,516.99998 C317.186853,516.994108 315.962318,515.726891 316.000886,513.910039 C316.038248,512.241166 317.285684,510.959857 318.838048,511.000962 C320.778503,511.050288 321.969292,512.153083 321.999423,513.931179 C322.03076,515.732764 320.782119,517.005852 318.987499,516.99998" id="Fill-319" fill="#B0B0B0"></path>
                    <path d="M303.9869,515.99998 C302.186615,515.994108 300.962325,514.728055 301.000886,512.910012 C301.038241,511.241124 302.285426,509.960978 303.837478,510.000909 C305.777544,510.050236 306.968094,511.153041 306.999424,512.932327 C307.030754,514.733927 305.781159,516.005852 303.9869,515.99998" id="Fill-321" fill="#B0B0B0"></path>
                    <path d="M293.987477,522.99998 C292.186845,522.994108 290.962318,521.726892 291.000886,519.908865 C291.038248,518.239992 292.285675,516.959857 293.838027,517.000963 C295.778468,517.050289 296.969248,518.15191 296.999379,519.93118 C297.031921,521.732764 295.782084,523.005852 293.987477,522.99998" id="Fill-323" fill="#B0B0B0"></path>
                    <path d="M280.986322,525.99998 C279.185693,525.994108 277.961168,524.728055 278.000941,522.910012 C278.037098,521.241124 279.284522,519.960978 280.836872,520.000909 C282.777309,520.05141 283.968087,521.153041 283.999423,522.932327 C284.03076,524.733927 282.78213,526.005852 280.986322,525.99998" id="Fill-325" fill="#B0B0B0"></path>
                    <path d="M139.986322,518.99998 C138.185693,518.994109 136.961168,517.727129 137.000941,515.909443 C137.037098,514.240881 138.284522,512.960986 139.836872,513.000909 C141.777309,513.0514 142.968087,514.152815 142.999423,515.931753 C143.03076,517.733 141.78213,519.005851 139.986322,518.99998" id="Fill-327" fill="#B0B0B0"></path>
                    <path d="M128.986322,512.99998 C127.185693,512.994108 125.961168,511.726892 126.000941,509.908865 C126.037098,508.239992 127.284522,506.959857 128.836872,507.000963 C130.777309,507.050289 131.968087,508.15191 131.999423,509.93118 C132.03076,511.732764 130.78213,513.005852 128.986322,512.99998" id="Fill-329" fill="#B0B0B0"></path>
                    <path d="M90.9863222,524.99998 C89.1856927,524.994108 87.9611682,523.728055 88.0009411,521.910012 C88.0370983,520.241124 89.2845224,518.960978 90.8368723,519.000909 C92.7773098,519.05141 93.9668823,520.153041 93.9994238,521.932327 C94.0307601,523.733927 92.7809255,525.005852 90.9863222,524.99998" id="Fill-331" fill="#B0B0B0"></path>
                    <path d="M71.9868996,513.99998 C70.1866151,513.994108 68.9623252,512.72688 69.0008855,510.910012 C69.0382408,509.241124 70.2854259,507.960978 71.8362734,508.000909 C73.7775441,508.050236 74.9668887,509.153041 74.9994239,510.932327 C75.0307542,512.733927 73.7811591,514.005852 71.9868996,513.99998" id="Fill-333" fill="#B0B0B0"></path>
                    <path d="M27.9868996,378.99998 C26.1866151,378.994108 24.9623252,377.726891 25.0008855,375.910039 C25.0382408,374.241166 26.2854259,372.959857 27.8362734,373.000962 C29.7775441,373.050288 30.9668887,374.153083 30.9994239,375.931179 C31.0307542,377.733938 29.7811591,379.005852 27.9868996,378.99998" id="Fill-335" fill="#B0B0B0"></path>
                    <path d="M24.9863219,391.99998 C23.1856925,391.994108 21.9611682,390.72688 22.0009411,388.910012 C22.0370983,387.241124 23.2845223,385.960978 24.8368721,386.000909 C26.7773094,386.050236 27.968087,387.153041 27.9994233,388.932327 C28.0307595,390.733927 26.7821303,392.005852 24.9863219,391.99998" id="Fill-337" fill="#B0B0B0"></path>
                    <path d="M118.986322,30.9999798 C117.185693,30.9941075 115.961168,29.7268802 116.000941,27.9100121 C116.037098,26.2411242 117.284522,24.960978 118.836872,25.0009092 C120.77731,25.0502359 121.966882,26.1530408 121.999424,27.9311521 C122.03076,29.7327524 120.780926,31.005852 118.986322,30.9999798" id="Fill-339" fill="#B0B0B0"></path>
                    <path d="M131.986322,36.9999798 C130.185693,36.9941075 128.961168,35.7280546 129.000941,33.9100121 C129.037098,32.2411242 130.284522,30.960978 131.836872,31.0009092 C133.777309,31.0502359 134.968087,32.1530408 134.999423,33.9311521 C135.03076,35.7339269 133.78213,37.005852 131.986322,36.9999798" id="Fill-341" fill="#B0B0B0"></path>
                    <path d="M124.986322,21.9999798 C123.185693,21.9941075 121.961168,20.7268802 122.000941,18.9100121 C122.037098,17.2411242 123.284522,15.960978 124.836872,16.0009092 C126.777309,16.0502359 127.968087,17.1530408 127.999423,18.9311521 C128.03076,20.7327524 126.78213,22.005852 124.986322,21.9999798" id="Fill-343" fill="#B0B0B0"></path>
                    <path d="M116.9869,17.9999798 C115.186615,17.9941075 113.962325,16.7280546 114.000886,14.9100121 C114.038241,13.2411242 115.285426,11.960978 116.836273,12.0009092 C118.777544,12.0502359 119.966889,13.1530408 119.999424,14.9311521 C120.030754,16.7339269 118.781159,18.005852 116.9869,17.9999798" id="Fill-345" fill="#B0B0B0"></path>
                    <path d="M132.986322,8.99997977 C131.185693,8.99410754 129.961168,7.72805466 130.000941,5.91001212 C130.037098,4.24112423 131.284522,2.96097799 132.836872,3.00090916 C134.777309,3.0502359 135.968087,4.15304077 135.999423,5.93115215 C136.03076,7.73275244 134.78213,9.005852 132.986322,8.99997977" id="Fill-347" fill="#B0B0B0"></path>
                    <path d="M120.986322,5.99997977 C119.185693,5.99410754 117.961168,4.72688021 118.000941,2.91001212 C118.037098,1.24112423 119.284522,-0.039022007 120.836872,0.000909159983 C122.777309,0.0502358956 123.968087,1.15304077 123.999423,2.93115215 C124.03076,4.73275244 122.78213,6.005852 120.986322,5.99997977" id="Fill-349" fill="#B0B0B0"></path>
                </g>
                <g id="roller" transform="translate(0.000000, 259.000000)">
                    <path d="M33.6147303,315.52675 C20.2954025,315.52675 9.49608299,304.7555 9.49608299,291.46925 C9.49608299,278.18175 20.2954025,267.4105 33.6147303,267.4105 C46.9340581,267.4105 57.7333776,278.18175 57.7333776,291.46925 C57.7333776,304.7555 46.9340581,315.52675 33.6147303,315.52675 M33.6147303,257.938 C15.0498755,257.938 0,272.94925 0,291.46925 C0,309.98675 15.0498755,324.99925 33.6147303,324.99925 C52.1795851,324.99925 67.2294606,309.98675 67.2294606,291.46925 C67.2294606,272.94925 52.1795851,257.938 33.6147303,257.938" id="Fill-1" fill="#62481C"></path>
                    <path d="M47.4051029,300.430375 C46.7108788,299.736625 41.9678498,294.575375 41.0154846,292.947875 C40.0430697,291.285375 40.460356,290.176625 41.2936755,289.067875 C42.126995,287.959125 48.793551,278.952875 50.7383809,280.200375 C52.6832108,281.446625 54.7671361,287.544125 54.7671361,290.870375 C54.7671361,294.195375 54.3498498,296.411625 52.6832108,300.014125 C51.0165718,303.616625 48.099327,301.122875 47.4051029,300.430375 M44.9615344,308.391625 C43.7121817,310.331625 37.5995012,312.410375 34.2662232,312.410375 C30.9329452,312.410375 28.7111776,311.994125 25.0984556,310.331625 C21.4869867,308.669125 23.9881983,305.760375 24.6824224,305.066625 C25.3766465,304.372875 30.5507461,299.641625 32.183551,298.692875 C33.85019,297.722875 34.9604473,298.139125 36.0719577,298.970375 C37.183468,299.801625 46.2121402,306.451625 44.9615344,308.391625 M16.668771,302.415375 C14.7239411,301.167875 12.6400158,295.071625 12.6400158,291.746625 C12.6400158,288.421625 13.0573021,286.202875 14.7239411,282.600375 C16.3905801,278.997875 19.3078249,281.492875 20.002049,282.185375 C20.6975261,282.877875 25.4393021,288.040375 26.3916672,289.667875 C27.3640822,291.330375 26.9467959,292.437875 26.1134763,293.546625 C25.2801568,294.655375 18.6123477,303.661625 16.668771,302.415375 M22.4769452,274.576625 C23.7262979,272.637875 29.8389784,270.559125 33.1722564,270.559125 C36.5067876,270.559125 38.7285552,270.975375 42.3400241,272.637875 C45.9514929,274.300375 43.4515344,277.209125 42.7573104,277.902875 C42.0618332,278.594125 36.8877336,283.325375 35.2561817,284.275375 C33.5895427,285.246625 32.4780324,284.830375 31.366522,283.997875 C30.2550116,283.166625 21.2263394,276.516625 22.4769452,274.576625 M33.614605,267.410375 C20.2952772,267.410375 9.49721079,278.181625 9.49721079,291.469125 C9.49721079,304.755375 20.2952772,315.526625 33.614605,315.526625 C46.9351859,315.526625 57.7332523,304.755375 57.7332523,291.469125 C57.7332523,278.181625 46.9351859,267.410375 33.614605,267.410375" id="Fill-3" fill="#B9B497"></path>
                    <path d="M54.1724091,262.7875 C52.6561436,262.31875 50.7514133,261.91875 48.6800191,261.57375 C55.6009568,265.45625 59.8502598,270.865 60.2838365,272.48625 C63.8953054,274.01125 70.8413054,276.365 70.8413054,276.365 C70.8413054,276.365 70.3363012,273.8875 69.0393303,270.5975 C65.1596954,268.0325 59.003156,264.27625 54.1724091,262.7875" id="Fill-5" fill="#62745B"></path>
                    <path d="M69.0390797,270.597625 C67.5040174,266.703875 64.8549386,261.668875 60.5617768,258.215125 C53.4328224,252.476375 44.4492622,248.237625 32.2264075,248.792625 C20.0022996,249.346375 14.4460008,254.612625 14.4460008,254.612625 L22.9195444,258.352625 C22.9195444,258.352625 31.5309303,255.443875 42.2274946,258.768875 C44.5783328,259.500125 46.728673,260.478875 48.6797685,261.573875 C50.7511627,261.918875 52.6558929,262.318875 54.1721585,262.787625 C59.0029054,264.276375 65.1594448,268.032625 69.0390797,270.597625" id="Fill-7" fill="#6C826B"></path>
                    <path d="M267.988284,314.772375 C254.667703,314.772375 243.869637,304.001125 243.869637,290.714875 C243.869637,277.427375 254.667703,266.656125 267.988284,266.656125 C281.307612,266.656125 292.105678,277.427375 292.105678,290.714875 C292.105678,304.001125 281.307612,314.772375 267.988284,314.772375 M267.988284,257.183625 C249.423429,257.183625 234.373554,272.194875 234.373554,290.714875 C234.373554,309.232375 249.423429,324.244875 267.988284,324.244875 C286.553139,324.244875 301.603014,309.232375 301.603014,290.714875 C301.603014,272.194875 286.553139,257.183625 267.988284,257.183625" id="Fill-9" fill="#62481C"></path>
                    <path d="M281.778656,299.676 C281.083179,298.98225 276.341403,293.821 275.389038,292.1935 C274.416623,290.531 274.83391,289.42225 275.667229,288.3135 C276.500549,287.20475 283.167105,278.1985 285.111934,279.446 C287.056764,280.69225 289.14069,286.78975 289.14069,290.116 C289.14069,293.441 288.723403,295.65725 287.056764,299.25975 C285.390125,302.86225 282.47288,300.3685 281.778656,299.676 M279.335088,307.63725 C278.085735,309.57725 271.973055,311.656 268.639777,311.656 C265.306499,311.656 263.083478,311.23975 259.472009,309.57725 C255.86054,307.91475 258.361752,305.006 259.055976,304.31225 C259.7502,303.6185 264.9243,298.8885 266.557105,297.9385 C268.223744,296.9685 269.334001,297.38475 270.445511,298.216 C271.557022,299.04725 280.585694,305.69725 279.335088,307.63725 M251.042324,301.661 C249.097495,300.4135 247.013569,294.31725 247.013569,290.99225 C247.013569,287.66725 247.429602,285.4485 249.097495,281.846 C250.764134,278.2435 253.681378,280.7385 254.375602,281.431 C255.069827,282.1235 259.812856,287.286 260.765221,288.9135 C261.737636,290.576 261.320349,291.6835 260.48703,292.79225 C259.65371,293.901 252.985901,302.90725 251.042324,301.661 M256.850499,273.82225 C258.099851,271.8835 264.212532,269.80475 267.54581,269.80475 C270.879088,269.80475 273.102109,270.221 276.713578,271.8835 C280.325046,273.546 277.825088,276.45475 277.130864,277.1485 C276.435387,277.83975 271.261287,282.571 269.629735,283.521 C267.963096,284.49225 266.851586,284.076 265.740076,283.2435 C264.628565,282.41225 255.599893,275.76225 256.850499,273.82225 M267.988159,266.656 C254.667578,266.656 243.870764,277.42725 243.870764,290.71475 C243.870764,304.001 254.667578,314.77225 267.988159,314.77225 C281.308739,314.77225 292.105553,304.001 292.105553,290.71475 C292.105553,277.42725 281.308739,266.656 267.988159,266.656" id="Fill-11" fill="#B9B497"></path>
                    <path d="M277.982604,258.61025 C276.397417,258.7015 274.47389,258.99025 272.411268,259.39025 C280.255749,260.61275 286.134098,264.19775 287.109019,265.564 C291.026247,265.73275 298.359459,265.5165 298.359459,265.5165 C298.359459,265.5165 297.017376,263.3715 294.648994,260.7415 C290.115235,259.69275 283.030139,258.3215 277.982604,258.61025" id="Fill-13" fill="#62745B"></path>
                    <path d="M294.648744,260.741625 C291.845532,257.629125 287.598735,253.837875 282.365739,252.097875 C273.675407,249.207875 265.163017,247.771625 253.742154,252.152875 C238.845159,257.867875 235.094594,272.936625 235.094594,272.936625 L241.276196,275.672875 C241.276196,275.672875 243.113258,271.080375 246.831241,266.944125 C250.890071,262.431625 258.913748,259.090375 264.750744,258.769125 C267.210602,258.632875 270.200528,259.045375 272.411017,259.390375 C274.47364,258.990375 276.397167,258.701625 277.982354,258.610375 C283.031142,258.320375 290.114984,259.692875 294.648744,260.741625" id="Fill-15" fill="#6C826B"></path>
                    <path d="M80.1475419,263.47975 C83.4808199,270.686 85.5647452,287.1735 85.5647452,287.1735 L268.851177,287.71475 L268.847417,287.5885 L237.108596,273.871 L98.6221726,273.03975 C98.6221726,273.03975 91.2601394,251.00975 75.7027535,243.80475 C65.5525461,239.1035 59.590239,236.73725 52.0891104,237.01475 C51.6555336,238.60225 51.3961394,239.88475 51.2332349,240.90975 C64.6152183,244.01975 77.0673925,256.82225 80.1475419,263.47975" id="Fill-17" fill="#7B957C"></path>
                    <path d="M85.5644946,287.1735 C85.5644946,287.1735 83.4805693,270.686 80.1472913,263.47975 C77.0671419,256.82225 64.6149676,244.01975 51.2329842,240.90975 C50.9259718,242.83975 50.9773494,243.80475 50.9773494,243.80475 C61.2566274,247.2685 70.2953245,254.771 73.8278473,261.81725 C77.3691419,268.8835 80.4254822,279.42225 80.8415154,285.511 C81.2588017,291.60725 81.1197062,297.42725 81.1197062,297.42725 L269.056437,296.7335 L268.850926,287.71475 L85.5644946,287.1735 Z" id="Fill-19" fill="#6E826A"></path>
                    <polygon id="Fill-21" fill="#799074" points="98.6217967 273.04025 85.807473 287.48525 268.848295 287.589 230.927871 271.0665"></polygon>
                    <polygon id="Fill-23" fill="#799074" points="50.5610656 186.164 68.61841 190.87525 38.754244 296.11025 25.9750075 292.024"></polygon>
                    <path d="M38.753868,296.179875 C38.1987394,295.902375 26.113727,292.057375 26.113727,292.057375 C26.113727,292.057375 39.5884407,269.022375 42.6435278,261.956125 C45.6986149,254.889875 62.2284158,213.183625 62.2284158,213.183625 L38.753868,296.179875 Z" id="Fill-25" fill="#6C8568"></path>
                    <polygon id="Fill-27" fill="#8EAA8C" points="99.246473 10.749 55.075527 187.619 64.4513112 190.11275 109.872863 13.03525"></polygon>
                    <path d="M80.8071801,7.0075 C80.7144498,2.74625 84.1417112,1.08375 84.9750307,0.66875 C88.8283502,0.46125 110.498417,0.045 110.498417,0.045 L109.559836,13.13875 L85.2870556,12.41125 C85.2870556,12.41125 80.9111884,11.7875 80.8071801,7.0075" id="Fill-29" fill="#787E5C"></path>
                    <path d="M116.123762,6.591875 C116.123762,3.033125 113.231579,0.149375 109.663969,0.149375 C106.097612,0.149375 103.20543,3.033125 103.20543,6.591875 C103.20543,10.150625 106.097612,13.034375 109.663969,13.034375 C113.231579,13.034375 116.123762,10.150625 116.123762,6.591875" id="Fill-31" fill="#789076"></path>
                </g>
                <g id="people" transform="translate(83.000000, 73.000000)">
                    <g id="Group-38" transform="translate(0.000000, 50.000000)">
                        <path d="M68.8755,107.16656 C68.8755,107.16656 28.34675,124.446803 25.54175,125.591224 C22.7355,126.735644 11.2005,130.067484 7.3555,130.900131 C3.5105,131.732778 0.6005,131.940627 0.393,132.982375 C0.18425,134.022871 0.49675,141.829719 1.22425,144.223736 C1.95175,146.617753 3.303,148.699997 4.34175,148.075198 C5.3805,147.4504 6.213,146.202055 6.31675,143.495013 C6.4205,140.789224 6.628,137.041686 6.628,137.041686 L11.928,137.249534 L69.8105,115.286434 L68.8755,107.16656 Z" id="Fill-34" fill="#F9BC85"></path>
                        <path d="M60.96475,0.957481513 C61.32725,2.40866639 62.59225,3.52554034 64.1635,3.6257084 C65.73475,3.72587647 67.13225,2.78054034 67.676,1.3869521 L60.96475,0.957481513 Z" id="Fill-36" fill="#F4B396"></path>
                    </g>
                    <g id="Group-41" transform="translate(61.000000, 37.000000)">
                        <mask id="mask-6" fill="white">
                            <use xlink:href="#path-5"></use>
                        </mask>
                        <g id="Clip-40"></g>
                        <path d="M0.00285714286,13.9682857 C1.38242857,17.5477143 7.40985714,14.9235714 7.40985714,14.9235714 L5.02357143,0.272857143 C3.33157143,12.1747143 1.169,11.3544286 0.00285714286,13.9682857" id="Fill-39" mask="url(#mask-6)"></path>
                    </g>
                    <g id="Group-46" transform="translate(82.000000, 60.000000)" fill="#F4B396">
                        <polygon id="Fill-42" points="15.7497846 27.327531 3.52332308 28.5242207 0.898092308 1.22628966 13.1245538 0.0296"></polygon>
                        <path d="M15.7497846,27.3269103 C15.8937846,28.821531 15.4420923,30.2441517 14.5780923,31.3738069 C13.5774769,32.6909103 12.0193231,33.6107724 10.2002462,33.789531 C6.82301538,34.1197379 3.83347692,31.7623586 3.52209231,28.5236 C3.21070769,25.2848414 5.69563077,22.393669 9.07286154,22.0634621 C10.8907077,21.8859448 12.5953231,22.4867724 13.8297846,23.5853931 C14.8907077,24.5238759 15.6057846,25.8322897 15.7497846,27.3269103" id="Fill-44"></path>
                    </g>
                    <g id="Group-49" transform="translate(63.000000, 12.000000)">
                        <mask id="mask-8" fill="white">
                            <use xlink:href="#path-7"></use>
                        </mask>
                        <g id="Clip-48"></g>
                        <path d="M3.35115789,20.534717 C2.41136842,24.0937358 -4.67494737,52.9295094 10.416,61.8693962 C15.8690526,64.869283 22.9528421,64.8680377 23.5553684,64.8680377 C23.5818947,64.8680377 23.5945263,64.8680377 23.5970526,64.8680377 C37.6673684,65.7135849 45.2412632,43.4068302 45.5330526,39.2475849 C46.1393684,30.6090566 46.6509474,23.3378491 46.6509474,23.3378491 L46.7103158,22.4810943 L46.6938947,22.4798491 C46.7418947,22.1025283 46.7835789,21.7214717 46.8088421,21.3391698 C47.5818947,10.3582642 39.1781053,0.841811321 28.0395789,0.0809433962 C27.6063158,0.0510566038 27.1730526,0.0373584906 26.7397895,0.0373584906 C16.0395789,0.0361132075 5.544,8.93988679 3.35115789,20.534717" id="Fill-47" fill="url(#linearGradient-9)" mask="url(#mask-8)"></path>
                    </g>
                    <g id="Group-125" transform="translate(11.000000, 0.000000)">
                        <path d="M59.9347836,34.5385938 L68.3421477,38.4223311 C67.8616554,37.1728244 66.4552144,35.8156448 64.6058195,34.9617735 C62.7564246,34.1066501 60.9683426,33.9889611 59.9347836,34.5385938" id="Fill-50" fill="#603917"></path>
                        <path d="M64.0692697,51.6199013 C63.8515467,55.0253705 66.4341928,57.9613357 69.8364287,58.1791855 C73.2411672,58.3970354 76.1754236,55.8128853 76.3931467,52.4074161 C76.6096185,49.0031989 74.0282236,46.0659818 70.6247364,45.8481319 C67.2212492,45.630282 64.2869928,48.2156842 64.0692697,51.6199013" id="Fill-52" fill="#F8AD9A"></path>
                        <path d="M56.2164738,65.3265391 L55.6771713,65.2789627 C55.2141969,65.2388984 54.8713456,64.8307429 54.9126379,64.3674989 C54.952679,63.9030029 55.3605969,63.559952 55.8248226,63.6012684 L56.3628738,63.6488448 C59.2583405,63.9004989 62.1112636,62.8801102 64.1896431,60.8493488 C64.5224841,60.523826 65.0555303,60.5300861 65.3808636,60.8631209 C65.7049456,61.1961558 65.6999405,61.7295123 65.3658482,62.0550351 C62.9358585,64.4300995 59.6011918,65.6220137 56.2164738,65.3265391" id="Fill-54" fill="#F27A6E"></path>
                        <path d="M61.2135938,40.7521979 C61.152281,41.7200021 61.8855323,42.5538413 62.8527733,42.6164418 C63.8200144,42.6777903 64.6533682,41.9441121 64.714681,40.9763078 C64.7772451,40.0085035 64.0427426,39.1746643 63.0767528,39.1120638 C62.1095118,39.0519673 61.2749067,39.7856456 61.2135938,40.7521979" id="Fill-56" fill="#542E23"></path>
                        <path d="M50.3064185,14.6372574 C49.9623159,20.0183995 54.0427467,24.6596032 59.4220082,25.0039062 C64.8000185,25.3482091 69.438521,21.2641501 69.7813723,15.883008 C70.1254749,10.501866 66.0450441,5.8606622 60.6670338,5.51635925 C55.2877723,5.1720563 50.6492697,9.25611528 50.3064185,14.6372574" id="Fill-58" fill="#EE6E5E"></path>
                        <path d="M50.367481,16.5207823 C51.0919733,27.2843185 63.2043836,33.0310477 69.9525477,34.703734 C67.9154605,30.8112327 62.9203426,21.8843962 67.7052451,14.7041147 L50.367481,16.5207823 Z" id="Fill-60" fill="#EE6E5E"></path>
                        <path d="M76.6487836,43.4823324 C76.7501374,45.3641046 78.3555323,46.8064209 80.2362092,46.705008 C82.1168862,46.6035952 83.5583631,44.9960134 83.4570092,43.1154933 C83.3556554,41.2337212 81.7502605,39.7914048 79.8695836,39.8928177 C77.9889067,39.9942306 76.5461785,41.6018123 76.6487836,43.4823324" id="Fill-62" fill="#F4B396"></path>
                        <path d="M77.7405272,50.0988335 C77.8143528,51.4735413 78.9880554,52.5277343 80.3619631,52.4538657 C81.7371221,52.3799971 82.7907015,51.204359 82.7156246,49.8309032 C82.641799,48.4561954 81.4680964,47.4007504 80.0929374,47.475871 C78.7190297,47.5497397 77.6654503,48.7241257 77.7405272,50.0988335" id="Fill-64" fill="#F4B396"></path>
                        <polygon id="Fill-66" fill="#F4B396" points="76.6835692 43.8205005 77.7759385 50.407329 82.6972308 50.300908 83.4517538 43.5913826"></polygon>
                        <path d="M85.8403262,71.9973775 L87.3356082,87.4133855 C87.4820082,88.9220584 87.0215364,90.3556107 86.1443877,91.4949405 L84.2699672,72.1501228 L85.8403262,71.9973775 Z" id="Fill-68" fill="#E49D85"></path>
                        <path d="M102.207721,360.936788 C102.207721,346.988136 99.5024492,338.870099 98.8780595,335.330665 C98.254921,331.792482 98.254921,327.003541 98.254921,327.003541 C98.254921,327.003541 78.2719467,328.626147 74.9397826,333.695539 C79.9461621,344.282541 88.6838646,440.667335 88.6838646,440.667335 C89.4946954,433.490809 92.8456287,412.562198 93.8854441,407.983595 C95.6785313,400.088415 102.207721,374.884187 102.207721,360.936788" id="Fill-70" fill="#FCC49B"></path>
                        <path d="M71.9014195,334.567564 C72.0403118,340.328065 74.5366195,343.658414 75.785399,346.156175 C77.0341785,348.653937 79.9459118,365.725103 79.3215221,381.961178 C78.6983836,398.198505 73.4968041,441.499296 73.4968041,441.499296 L88.8225067,442.400744 C88.8225067,442.400744 88.6623426,446.454754 89.1002913,436.086854 C89.675881,422.461221 88.0930092,391.986028 84.7308144,371.345379 C80.7992862,347.204108 74.9395323,333.696165 74.9395323,333.696165 L71.9014195,334.567564 Z" id="Fill-72" fill="#F7C194"></path>
                        <path d="M74.7449579,430.257116 L89.5851631,434.212218 L88.8231323,441.567781 C88.8231323,441.567781 88.8231323,443.095234 85.3545785,444.621435 C81.8872759,446.147636 79.2533272,445.315049 76.6168759,444.621435 C73.9816759,443.927821 72.4563631,441.845727 72.4563631,441.845727 L74.7449579,430.257116 Z" id="Fill-74" fill="#D5E3E4"></path>
                        <path d="M89.1004164,442.332134 C92.7979549,445.591117 91.7093395,461.877273 91.7093395,461.877273 L91.6630421,465.69215 C91.6605395,466.197962 91.3652369,466.628654 90.9410523,466.835235 L89.3369087,466.954176 L38.8977292,466.374495 C38.187001,466.361975 37.6164164,465.782294 37.6239241,465.066144 L37.6627138,461.701991 C37.667719,461.504174 37.6752267,461.30886 37.6927446,461.11605 C37.8316369,459.358227 38.6800062,457.581624 42.9593908,455.557123 C43.0369703,455.51831 43.1145497,455.482002 43.1933805,455.446946 C43.2058933,455.441938 43.22216,455.434426 43.2346728,455.425662 C43.2346728,455.425662 43.2471856,455.41815 43.2734626,455.408134 L55.2945292,449.847954 L58.310119,448.453214 L69.2200472,442.201924 C69.2200472,442.201924 84.3843344,442.332134 89.1004164,442.332134" id="Fill-76" fill="#78421E"></path>
                        <path d="M43.1946318,455.447697 C49.5073497,455.520314 55.7537497,454.14185 61.4508369,451.416223 C61.4508369,451.416223 72.3820369,447.215727 72.4821395,438.673257 C72.5209292,437.264745 70.9192882,437.12452 70.7916574,438.292646 C67.2592882,445.718322 43.2346728,455.422657 43.2346728,455.422657 C43.2209087,455.433925 43.2058933,455.441437 43.1946318,455.447697" id="Fill-78" fill="#6B3A1D"></path>
                        <path d="M91.7112164,461.735921 L91.7099651,461.877398 L91.6636677,465.692275 C91.6611651,466.196835 91.3646113,466.628779 90.9404267,466.835361 C90.7664985,466.923001 90.5712985,466.969326 90.3623344,466.96557 L38.8983549,466.374621 C38.1863754,466.362101 37.6170421,465.78242 37.6232985,465.066269 L37.6695959,461.114924 L91.7112164,461.735921 Z" id="Fill-80" fill="#492A17"></path>
                        <path d="M137.622507,295.720927 C123.683225,295.720927 115.568661,298.427774 112.032537,299.052527 C108.495163,299.676028 103.710261,299.676028 103.710261,299.676028 C103.710261,299.676028 105.331922,319.671892 110.398363,323.005996 C120.977953,317.995449 217.30665,309.252658 217.30665,309.252658 C210.135553,308.441355 189.219122,305.088471 184.641932,304.04805 C176.751348,302.253918 151.561789,295.720927 137.622507,295.720927" id="Fill-82" fill="#FCC49B"></path>
                        <path d="M111.26913,326.045503 C117.025028,325.906529 120.354689,323.408768 122.850997,322.159261 C125.347305,320.909755 142.407284,317.995074 158.635161,318.619827 C174.863038,319.24458 218.138628,324.449189 218.138628,324.449189 L219.039551,309.114562 C219.039551,309.114562 223.091202,309.273567 212.728084,308.836615 C199.111633,308.26069 168.654176,309.844484 148.025541,313.207385 C123.89832,317.142454 110.398238,323.005621 110.398238,323.005621 L111.26913,326.045503 Z" id="Fill-84" fill="#F7C194"></path>
                        <path d="M206.903616,323.200434 L210.856416,308.351586 L218.207698,309.114061 C218.207698,309.114061 219.733011,309.114061 221.259575,312.583383 C222.784888,316.052704 221.952786,318.689439 221.259575,321.326173 C220.565114,323.962908 218.485483,325.490361 218.485483,325.490361 L206.903616,323.200434 Z" id="Fill-86" fill="#D5E3E4"></path>
                        <path d="M218.97048,308.83649 C222.227567,305.136798 238.505495,306.224796 238.505495,306.224796 L242.316901,306.27112 C242.822418,306.273624 243.254111,306.570351 243.459321,306.994782 L243.579444,308.59986 L243.000101,359.06716 C242.987588,359.779554 242.406993,360.350471 241.692511,360.342959 L238.329065,360.302895 C238.132613,360.299139 237.937413,360.291627 237.743465,360.274099 C235.986665,360.135125 234.211095,359.286262 232.189024,355.004386 C232.150234,354.926761 232.112695,354.849136 232.077659,354.77026 C232.072654,354.756487 232.065147,354.741463 232.056388,354.727691 C232.056388,354.727691 232.04888,354.716423 232.040121,354.688879 L226.481926,342.662064 L225.089249,339.643466 L218.841598,328.728436 C218.841598,328.728436 218.97048,313.555318 218.97048,308.83649" id="Fill-88" fill="#78421E"></path>
                        <path d="M232.079036,354.768382 C232.150359,348.451987 230.773949,342.203202 228.049908,336.501545 C228.049908,336.501545 223.851856,325.565231 215.314359,325.465071 C213.906667,325.425006 213.767774,327.028832 214.933969,327.155285 C222.355323,330.689711 232.055262,354.729569 232.055262,354.729569 C232.065272,354.742089 232.072779,354.755861 232.079036,354.768382" id="Fill-90" fill="#6B3A1D"></path>
                        <g id="Group-94" transform="translate(237.743590, 305.490617)">
                            <mask id="mask-11" fill="white">
                                <use xlink:href="#path-10"></use>
                            </mask>
                            <g id="Clip-93"></g>
                            <path d="M0.620510769,0.733052279 L0.761905641,0.73430429 L4.57331077,0.780628686 C5.07882872,0.783132708 5.51052103,1.07985925 5.71573128,1.50429088 C5.80332103,1.67832038 5.85086974,1.87363405 5.84586462,2.08271984 L5.25651077,53.5766689 C5.24399795,54.289063 4.66340308,54.8587279 3.94892103,54.8524678 L-0.000125128205,54.8061434 L0.620510769,0.733052279 Z" id="Fill-92" fill="#492A17" mask="url(#mask-11)"></path>
                        </g>
                        <path d="M114.620939,215.770777 C100.473945,284.050434 112.887914,291.476109 118.434847,297.85886 C115.384222,303.689474 111.292529,326.518638 111.292529,326.518638 C111.292529,326.518638 89.65536,324.853463 86.3256985,315.970447 C82.9972882,307.089935 59.4531651,186.796745 59.4531651,186.796745 C59.4531651,186.796745 93.2615549,178.577294 108.518437,176.079533 C117.936837,186.064318 115.506847,210.405911 114.620939,215.770777" id="Fill-95" fill="#095F63"></path>
                        <path d="M83.2748226,255.184701 C84.3183918,240.564971 93.2112533,195.016821 92.650679,181.106982 C82.3488738,183.970331 69.1390892,186.574513 59.4529149,186.797371 C59.1463508,198.561264 68.5559918,318.592784 71.6967097,334.567188 C71.6967097,334.567188 87.1525456,335.025424 95.42352,333.616912 C91.5845867,318.279781 82.2262482,269.877046 83.2748226,255.184701" id="Fill-97" fill="#0B6B70"></path>
                        <path d="M114.620939,194.676149 C114.066622,186.903666 113.164447,178.993463 107.929083,175.870948 C107.661309,176.024945 107.352242,176.185203 107.024406,176.347964 L107.132016,175.870948 C104.596919,177.355833 99.211401,179.283929 92.6496779,181.106857 C93.2115036,195.016696 84.3186421,240.564846 83.2750728,255.184575 C82.2252472,269.876921 91.5835856,318.279656 95.4237703,333.616787 C96.8940267,333.365133 98.2341497,333.044618 99.3640574,332.625195 C102.415934,319.02335 105.744345,269.895701 107.686334,257.127696 C109.628324,244.359691 116.351463,218.921337 114.620939,194.676149" id="Fill-99" fill="#096770"></path>
                        <path d="M79.5301108,113.002607 C79.1134338,110.816596 78.1124082,102.975253 78.2813313,98.2226201 C78.3851877,95.3079391 80.1545005,91.1450035 85.5637928,86.9808158 C85.50248,85.4095424 85.1984185,83.7506282 84.9531672,82.6200625 C81.06168,84.3553493 76.563321,85.6248882 74.7452082,86.0443118 C73.4964287,87.6055692 59.9738236,101.969888 53.4196082,109.151422 C46.8666441,116.334207 48.8424185,118.622883 49.5706646,121.850566 C49.9410441,123.491953 51.5226646,129.445264 53.2068903,136.307534 C59.6685108,134.990419 72.7481621,130.987741 79.6339672,124.765247 C82.858521,121.850566 79.9467877,115.188617 79.5301108,113.002607" id="Fill-101" fill="#FFAE39"></path>
                        <path d="M86.3956451,172.540349 C91.3882605,166.410505 94.9944554,158.539113 96.5973477,154.68918 C95.7727528,149.562196 95.1683836,142.931547 94.8217785,135.589757 C94.1973887,122.371027 99.8156451,100.929092 99.9195015,94.0593088 C99.9532862,91.7668772 98.4630092,89.062534 97.5270503,87.3973598 C96.58984,85.7321855 91.5972246,81.7770836 89.8291631,79.7989067 C88.6016554,80.8217995 86.8486092,81.7758316 84.9529169,82.6209389 C85.1981682,83.7502525 85.503481,85.4104188 85.5635426,86.9816922 C80.1542503,91.1446279 78.3861887,95.3075635 78.2823323,98.2222445 C78.1121579,102.974877 79.1144349,110.817472 79.5298605,113.002231 C79.9465374,115.188242 82.8582708,121.850191 79.6337169,124.764872 C72.7479118,130.987365 59.6682605,134.990043 53.2078913,136.308411 C54.8333067,142.935303 56.5550708,150.41106 57.3721579,155.678269 C59.0351118,166.385464 59.4517887,186.746915 59.45304,186.796995 C63.4871733,186.038277 79.7163015,180.743523 86.3956451,172.540349" id="Fill-103" fill="#F9A138"></path>
                        <path d="M98.9824164,163.692514 C98.057719,161.934691 97.2568985,158.792145 96.5974728,154.689305 C94.9945805,158.539238 91.3883856,166.409378 86.3957703,172.540474 C79.7164267,180.743649 63.4872985,186.038402 59.4531651,186.79712 L59.4531651,186.799624 C59.4531651,186.799624 79.3222728,186.072206 92.4294523,183.261442 C105.536632,180.450678 107.929083,175.870823 107.929083,175.870823 C107.929083,175.870823 101.063298,167.647616 98.9824164,163.692514" id="Fill-105" fill="#EF903A"></path>
                        <path d="M1.92684923,187.944713 C2.03070564,189.92289 0.975874872,199.229086 3.48719795,199.915188 C3.77374154,199.992813 4.2154441,199.837563 4.2154441,199.837563 C4.34557744,199.446936 3.93015179,198.248762 4.00773128,196.298129 C4.08531077,194.346244 4.29302359,189.792681 4.42315692,189.428346 C4.55329026,189.064011 3.87759795,187.684295 3.48719795,187.450169 C3.09679795,187.216043 2.42110564,186.513665 2.21339282,186.695207 C2.00442872,186.878 1.92684923,187.944713 1.92684923,187.944713" id="Fill-107" fill="#FBC19B"></path>
                        <path d="M4.24122051,189.428471 C4.24122051,191.510565 3.92965128,194.63308 4.03350769,196.921755 C4.1373641,199.211683 3.73570256,201.731981 5.69771282,200.357273 C6.73877949,199.628603 5.80156923,197.754343 6.11438974,194.63308 C6.42595897,191.510565 6.52981538,190.468892 6.52981538,190.468892" id="Fill-109" fill="#FBC19B"></path>
                        <path d="M2.16083897,197.859386 C0.626767179,197.702885 0.885782564,195.43925 0.470356923,192.420652 C0.05368,189.402054 -0.257889231,184.093528 0.990890256,182.845274 C2.23841846,181.595767 7.64771077,181.699684 10.456839,181.178847 C13.2659672,180.659263 32.4068287,173.372561 41.2483877,170.146129 C50.0911979,166.919697 83.4829108,152.451461 88.0601005,150.890204 C86.811321,148.288526 83.79448,116.854292 83.0674851,114.147445 C82.339239,111.44185 77.5530851,103.947314 77.5530851,99.054456 C77.5530851,94.1628501 79.7378236,89.2712442 84.9394031,87.8139038 C92.6810851,85.6454212 95.3413108,89.6881638 97.4221928,93.2263461 C99.5030749,96.7657804 100.126213,103.218644 100.126213,106.965912 C100.126213,110.71318 104.180367,156.543032 102.103239,159.425161 C98.8786851,163.901099 83.3790544,168.792705 75.6811672,170.978716 C67.98328,173.164727 34.6941723,183.989612 29.5977005,184.926116 C24.5012287,185.86262 9.41702359,189.298137 9.41702359,189.298137 C9.41702359,189.298137 8.06438769,197.520091 7.64771077,197.937011 C6.84188513,198.744558 6.1399159,198.146097 6.1399159,197.729177" id="Fill-111" fill="#FBC19B"></path>
                        <path d="M86.4995015,87.9178206 C88.7880964,91.457255 94.5089579,100.720882 95.0294913,105.820322 C95.5500246,110.921014 99.2951118,130.905609 100.023358,133.612456 C100.751604,136.318051 101.47985,155.262225 101.47985,155.262225 C95.1333477,158.38474 31.157799,184.405279 31.157799,184.405279 C39.063399,182.740105 67.0470708,174.309065 72.9756451,172.124306 C78.9054708,169.938295 98.7295323,162.585236 101.063173,161.090335 C103.663337,159.425161 102.439584,151.730303 102.519666,149.017196 C102.623522,145.477762 101.16703,120.184641 100.855461,117.68688 C100.54264,115.189118 100.023358,106.652909 100.023358,104.051231 C100.023358,101.449553 100.231071,95.0993542 97.8386195,92.1859252 C95.4461682,89.2712442 93.8858195,86.8773997 86.4995015,87.9178206" id="Fill-113" fill="#F9BC85"></path>
                        <path d="M4.26749744,191.674453 C4.39888205,189.596116 4.30253333,189.609888 4.30253333,189.609888 C4.30253333,189.609888 4.02474872,191.310118 4.00723077,191.9524 C3.98971282,192.580909 3.90337436,196.523491 3.90337436,197.078132 C3.90337436,197.590204 4.11108718,199.758687 4.11108718,199.758687 C4.03350769,199.170242 4.05352821,197.285965 4.12860513,195.43925 C4.1861641,194.04451 4.20493333,192.65603 4.26749744,191.674453" id="Fill-115" fill="#F9BC85"></path>
                        <path d="M18.8655795,187.216043 C17.0624821,187.355016 12.9194872,187.685547 10.9774974,187.823268 C9.03550769,187.962242 8.75772308,188.361633 8.68890256,189.124108 C8.61883077,189.887834 8.23718974,192.403124 8.30726154,193.65263 C8.37608205,194.900885 7.6616,197.924491 7.6616,197.924491 C7.6616,197.924491 8.09954872,197.051839 8.37608205,196.011418 C8.65386667,194.970998 9.02674872,191.51044 9.18315897,190.677853 C9.18315897,190.677853 9.31204103,189.576083 9.52100513,189.298137 C9.72871795,189.020191 15.6059897,187.97977 18.8655795,187.216043" id="Fill-117" fill="#F9AB6D"></path>
                        <path d="M6.31296821,191.726412 C6.24414769,192.351165 6.19159385,195.802959 6.19159385,196.358851 C6.19159385,196.869672 6.19785026,199.16586 6.19785026,199.16586 C6.05895795,198.125439 6.49690667,198.408393 6.52193231,191.189299" id="Fill-119" fill="#F9AB6D"></path>
                        <path d="M2.20413333,189.783667 C2.27420513,187.82427 2.25918974,186.955375 2.25918974,186.955375 C2.25918974,186.955375 2.12154872,188.204881 2.05147692,188.828383 C1.98265641,189.453136 1.94762051,194.631452 1.94762051,195.186093 C1.94762051,195.699417 2.15533333,197.8679 2.15533333,197.8679 C2.08275897,197.319519 2.04522051,195.331326 2.06524103,193.599795 C2.08275897,192.142455 2.16909744,190.770251 2.20413333,189.783667" id="Fill-121" fill="#F9BC85"></path>
                        <path d="M54.2564656,17.1742067 C58.6034195,5.60187158 71.7055938,0.539992225 83.8743118,0.176909115 L83.8705579,0.199445308 C83.9243631,0.195689276 83.9769169,0.190681233 84.0307221,0.186925201 C104.834537,-0.779627078 108.082866,19.9073461 108.082866,19.9073461 C108.082866,19.9073461 112.416055,48.6760485 126.271502,62.9289386 C131.894763,68.4478019 140.857696,72.7021343 144.075994,74.0342737 C138.322599,90.9138823 110.796896,81.3748126 110.796896,81.3748126 C110.796896,81.3748126 113.460876,83.6835204 126.629368,85.7568501 C121.277635,94.3256115 95.5963221,95.6752791 84.0332246,76.5908796 C78.4399938,66.8001558 80.3219221,30.3628877 64.324281,24.6712469 C63.641081,24.4283568 53.9599118,21.4873836 54.2564656,17.1742067" id="Fill-123" fill="#EE6E5E"></path>
                    </g>
                </g>
            </g>
        </g>
    </g>
</svg>