<?xml version="1.0" encoding="UTF-8"?>
<svg width="1696px" height="757px" viewBox="0 0 1696 757" version="1.1" xmlns="http://www.w3.org/2000/svg" xmlns:xlink="http://www.w3.org/1999/xlink">
    <!-- Generator: Sketch 52.3 (67297) - http://www.bohemiancoding.com/sketch -->
    <title>pic-net</title>
    <desc>Created with Sketch.</desc>
    <defs>
        <radialGradient cx="51.516201%" cy="50%" fx="51.516201%" fy="50%" r="54.8385582%" gradientTransform="translate(0.515162,0.500000),scale(0.463103,1.000000),rotate(-90.000000),scale(1.000000,2.186957),translate(-0.515162,-0.500000)" id="radialGradient-1">
            <stop stop-color="#096770" offset="0%"></stop>
            <stop stop-color="#F6E513" offset="43.348298%"></stop>
            <stop stop-color="#F6E513" stop-opacity="0" offset="100%"></stop>
        </radialGradient>
    </defs>
    <g id="Beam-WEB-Wireframes" stroke="none" stroke-width="1" fill="none" fill-rule="evenodd">
        <g id="Landing-Page" transform="translate(-80.000000, -2814.000000)" fill="url(#radialGradient-1)" fill-rule="nonzero">
            <path d="M1463.58548,2939.05559 L1581.53826,2835.26285 L1775.59129,3101.01365 L1590.28368,3438.58826 L1590.26646,3438.61964 L1589.80503,3439.46023 L1589.76316,3439.43725 L1589.76173,3439.43958 L1197.9773,3227.0731 L1169.8015,3570.04094 C1169.7671,3570.45965 1169.26294,3570.65183 1168.95855,3570.36226 L880.298683,3295.75084 L749.451618,3473.60103 C749.447082,3473.6072 749.442479,3473.61321 749.43781,3473.61908 C749.587227,3473.88605 749.46069,3474.24741 749.141456,3474.34157 L528.307339,3539.47957 C528.052173,3539.55484 527.782752,3539.41712 527.694317,3539.16621 L472.383201,3382.23984 L80.8427937,3252.55797 C80.3882772,3252.40743 80.384883,3251.76571 80.8377815,3251.61037 L389.305169,3145.80909 L425.49711,2785.94997 C425.541557,2785.50803 426.097161,2785.33912 426.380062,2785.68154 L649.900736,3056.22637 L728.816495,2937.83837 C729.039457,2937.50389 729.54596,2937.55592 729.696268,2937.92874 L759.393692,3011.59095 L1230.81051,2818.5373 C1231.00305,2818.45845 1231.20416,2818.50843 1231.33917,2818.63254 L1463.58548,2939.05559 Z M1464.53797,2939.54947 L1773.38874,3099.69303 L1581.37658,2836.73715 L1464.53797,2939.54947 Z M1774.0206,3101.79686 L1264.27888,3212.25715 L1589.4577,3438.01482 L1774.0206,3101.79686 Z M1202.78538,3168.54704 L1462.78,2939.76437 L1231.43524,2819.8088 L1202.78538,3168.54704 Z M1463.73249,2940.25826 L1204.19275,3168.64066 L1773.30235,3100.77467 L1463.73249,2940.25826 Z M1198.88533,3226.42784 L1582.26441,3434.2382 L1262.94251,3212.54674 L1198.88533,3226.42784 Z M1203.09357,3169.77882 L1263.15565,3211.47734 L1764.55454,3102.82493 L1203.09357,3169.77882 Z M1261.81929,3211.76693 L1202.70457,3170.72612 L1198.12127,3225.5702 L1261.81929,3211.76693 Z M748.666982,3472.88152 L817.257537,3276.31827 L693.191907,3238.70868 L748.436038,3472.67089 L748.666982,3472.88152 Z M747.827935,3473.46972 L473.583638,3382.63743 L528.479669,3538.38615 L748.00746,3473.63346 L747.827935,3473.46972 Z M747.126517,3471.47651 L692.08519,3238.37319 L391.719786,3147.31963 L747.126517,3471.47651 Z M746.014389,3471.81564 L390.83481,3147.86593 L473.163269,3381.44478 L746.014389,3471.81564 Z M471.962832,3381.04718 L389.409549,3146.83047 L82.5652701,3252.07505 L471.962832,3381.04718 Z M1201.7504,3168.93191 L1230.38224,2820.41293 L840.978748,3211.95372 L1201.7504,3168.93191 Z M1201.66684,3169.94896 L840.756965,3212.98725 L880.347603,3294.39862 L880.410444,3294.41767 L1197.07884,3225.79609 L1201.66684,3169.94896 Z M1196.99326,3226.83784 L881.235718,3295.26204 L1168.89044,3568.91724 L1196.99326,3226.83784 Z M879.043356,3294.00325 L840.093871,3213.9103 L818.545102,3275.66365 L879.043356,3294.00325 Z M649.019401,3056.72966 L426.372205,2787.24206 L390.346121,3145.45205 L649.019401,3056.72966 Z M692.92615,3237.58318 L817.587286,3275.37329 L839.425308,3212.79102 L650.629144,3058.45283 L692.92615,3237.58318 Z M758.46827,3011.96993 L729.123069,2939.18138 L651.366827,3055.8299 L758.46827,3011.96993 Z M691.819432,3237.24769 L649.412549,3057.652 L391.353602,3146.16368 L691.819432,3237.24769 Z M838.656593,3210.87099 L758.842189,3012.89741 L650.671019,3057.19545 L838.656593,3210.87099 Z M759.767611,3012.51843 L839.997403,3211.52235 L1229.04249,2820.34194 L759.767611,3012.51843 Z M879.477362,3295.17975 L818.215353,3276.60862 L750.616274,3470.33056 L879.477362,3295.17975 Z" id="pic-net"></path>
        </g>
    </g>
</svg>